<svg xmlns="http://www.w3.org/2000/svg" xmlns:xlink="http://www.w3.org/1999/xlink" width="50" height="50" viewBox="0 0 50 50"><defs><clipPath id="a"><rect width="50" height="50" transform="translate(672 524)" fill="#611818"/></clipPath></defs><g transform="translate(-672 -524)" clip-path="url(#a)"><g transform="translate(669.414 520.552)"><path d="M47.414,22.414V43.1H25V13.793l5.172,8.621Z" fill="#1e90ff"/><path d="M47.414,22.414v1.724H31.9l-1.034-1.724Z" fill="#e6e7e8"/><path d="M7.759,13.793H25V43.1H7.759Z" fill="#67b4ff"/><path d="M18.966,13.793v8.621L16.379,20.69l-2.586,1.724V13.793Z" fill="#e6e7e8"/><path d="M7.759,13.793v8.621H2.586Z" fill="#1e90ff"/><path d="M30.172,27.586H42.241v6.9H30.172Z" fill="#e6e7e8"/><path d="M47.414,13.793l5.172,8.621H30.172L25,13.793Z" fill="#67b4ff"/><path d="M41.379,38.793h3.448v1.724H41.379Z" fill="#e6e7e8"/><path d="M37.931,38.793h1.724v1.724H37.931Z" fill="#e6e7e8"/><path d="M32.759,30.172h1.724V31.9H32.759Z" fill="#bcbec0"/><path d="M36.207,30.172h3.448V31.9H36.207Z" fill="#bcbec0"/></g></g></svg>