<svg xmlns="http://www.w3.org/2000/svg" width="82.905" height="97.355" viewBox="0 0 82.905 97.355"><g transform="translate(-0.5 0)"><path d="M79.026,65.013A49.117,49.117,0,0,1,67.262,83.339C61.355,89.107,53.62,93.691,44.272,96.961a7.034,7.034,0,0,1-2.234.394h-.084a7.133,7.133,0,0,1-1.371-.135,7.426,7.426,0,0,1-.943-.257c-9.36-3.264-17.1-7.846-23.017-13.614A49.024,49.024,0,0,1,4.861,65.026C.109,52.132.38,37.928.6,26.513l0-.175c.044-.943.072-1.933.088-3.026A10.318,10.318,0,0,1,10.4,13.2C21.6,12.579,30.257,8.928,37.656,1.717l.065-.059a6.236,6.236,0,0,1,8.467,0l.063.059C53.65,8.928,62.31,12.579,73.5,13.2a10.318,10.318,0,0,1,9.716,10.108c.016,1.1.044,2.089.088,3.026l0,.074C83.526,37.848,83.795,52.081,79.026,65.013Zm0,0" transform="translate(0 0)" fill="#00dd80"/><path d="M255.938,65.016a49.117,49.117,0,0,1-11.764,18.326c-5.907,5.768-13.642,10.352-22.991,13.621a7.034,7.034,0,0,1-2.234.394V0A6.246,6.246,0,0,1,223.1,1.66l.063.059c7.4,7.211,16.059,10.862,27.253,11.487a10.318,10.318,0,0,1,9.716,10.108c.016,1.1.044,2.089.088,3.026l0,.074C260.437,37.851,260.706,52.084,255.938,65.016Zm0,0" transform="translate(-176.912 -0.003)" fill="#00dd80"/><path d="M139.421,152.661a24.293,24.293,0,0,1-24.178,24.264h-.085a24.263,24.263,0,1,1,0-48.527h.085A24.293,24.293,0,0,1,139.421,152.661Zm0,0" transform="translate(-73.206 -103.983)" fill="#fff"/><path d="M243.127,152.661a24.293,24.293,0,0,1-24.178,24.264V128.4A24.293,24.293,0,0,1,243.127,152.661Zm0,0" transform="translate(-176.912 -103.983)" fill="#fff"/><path d="M177.421,216.856l-10.928,10.929-2.361,2.361a2.859,2.859,0,0,1-4.041,0l-5.077-5.079a2.856,2.856,0,0,1,4.039-4.039l3.059,3.059,11.27-11.27a2.856,2.856,0,0,1,4.039,4.039Zm0,0" transform="translate(-124.456 -171.672)" fill="#b4d2d7"/><path d="M229.877,216.856l-10.927,10.929V219.7l6.888-6.887a2.856,2.856,0,0,1,4.039,4.039Zm0,0" transform="translate(-176.912 -171.672)" fill="#b4d2d7"/></g></svg>