<svg xmlns="http://www.w3.org/2000/svg" width="103.56" height="111" viewBox="0 0 103.56 111"><g transform="translate(-40 -24.385)"><path d="M40,249.862C40,220.206,58.89,200,82.191,200s42.191,20.206,42.191,49.862c0,0-19.178,11.507-42.191,11.507C61.1,261.369,40,249.862,40,249.862Z" transform="translate(0 -133.655)" fill="#1e90ff"/><ellipse cx="20.5" cy="21" rx="20.5" ry="21" transform="translate(61.703 24.385)" fill="#1e90ff"/><path d="M288.931,264h15.342c0,7.322,9.589,15.342,9.589,15.342,0,34.171-24.931,38.356-24.931,38.356S264,313.513,264,279.342c0,0,9.589-8.02,9.589-15.342Z" transform="translate(-170.302 -182.313)" fill="#67b4ff"/><path d="M355.506,333.748a5.753,5.753,0,1,0-9.589,4.287v9.137h7.671v-9.137A5.737,5.737,0,0,0,355.506,333.748Z" transform="translate(-231.124 -230.965)" fill="#e9eef2"/></g></svg>