<svg xmlns="http://www.w3.org/2000/svg" xmlns:xlink="http://www.w3.org/1999/xlink" width="50" height="50" viewBox="0 0 50 50"><defs><clipPath id="a"><rect width="50" height="50" transform="translate(673 605)" fill="#611818"/></clipPath></defs><g transform="translate(-673 -605)" clip-path="url(#a)"><g transform="translate(670.735 602.737)"><path d="M48.612,25.6a7.426,7.426,0,0,1-.852-.052.745.745,0,1,1,.17-1.481c1.384.161,2.271-.137,2.633-.885.973-2.012-1.238-7.445-6.507-12.713s-10.7-7.48-12.714-6.509c-.748.362-1.046,1.248-.885,2.633a.745.745,0,1,1-1.481.17c-.3-2.6.767-3.688,1.717-4.147,2.929-1.416,9.127,1.508,14.418,6.8S53.323,20.9,51.907,23.831A3.306,3.306,0,0,1,48.612,25.6Z" fill="#67b4ff"/><path d="M22.078,52.261c-3.253,0-8.27-2.759-12.662-7.151C4.126,39.82,1.2,33.623,2.621,30.694c.459-.95,1.549-2.017,4.147-1.717a.745.745,0,1,1-.17,1.481c-1.384-.161-2.271.137-2.633.885C2.99,33.355,5.2,38.787,10.47,44.056s10.7,7.479,12.713,6.509c.748-.362,1.046-1.248.885-2.633a.745.745,0,1,1,1.481-.17c.3,2.6-.767,3.688-1.717,4.147a4,4,0,0,1-1.755.353Z" fill="#67b4ff"/><path d="M32.448,52.261a4,4,0,0,1-1.754-.356c-.95-.459-2.018-1.551-1.717-4.147a.745.745,0,1,1,1.481.17c-.161,1.385.137,2.271.885,2.633,2.012.972,7.444-1.238,12.713-6.507s7.479-10.7,6.508-12.712c-.362-.748-1.249-1.047-2.633-.885a.745.745,0,1,1-.17-1.481c2.6-.3,3.688.767,4.147,1.717,1.416,2.929-1.5,9.126-6.795,14.416C40.719,49.5,35.7,52.261,32.448,52.261Z" fill="#67b4ff"/><path d="M5.914,25.6a3.3,3.3,0,0,1-3.293-1.769C1.2,20.9,4.126,14.706,9.414,9.414S20.9,1.2,23.832,2.621c.95.459,2.018,1.551,1.717,4.147a.745.745,0,1,1-1.481-.17c.161-1.385-.137-2.271-.885-2.633C21.172,2.992,15.739,5.2,10.47,10.47s-7.48,10.7-6.509,12.713c.362.748,1.248,1.045,2.633.885a.745.745,0,1,1,.17,1.481,7.426,7.426,0,0,1-.851.052Z" fill="#67b4ff"/><path d="M27.263,6.539A20.724,20.724,0,1,0,47.987,27.263,20.724,20.724,0,0,0,27.263,6.539ZM38.441,31.83a12.075,12.075,0,1,1,0-9.133A12.124,12.124,0,0,1,38.441,31.83Z" fill="#67b4ff"/><path d="M31.83,16.085a12.049,12.049,0,0,0-9.133,0c-.6-1.142-2.283-5.4-1.989-8.486a20.791,20.791,0,0,1,13.112,0C34.113,10.688,32.43,14.944,31.83,16.085Z" fill="#1e90ff"/><path d="M47.987,27.263a20.607,20.607,0,0,1-1.061,6.556c-3.088.294-7.344-1.389-8.486-1.989a12.05,12.05,0,0,0,0-9.133c1.142-.6,5.4-2.283,8.486-1.989a20.607,20.607,0,0,1,1.061,6.556Z" fill="#1e90ff"/><path d="M33.819,46.927a20.791,20.791,0,0,1-13.112,0c-.294-3.088,1.389-7.344,1.989-8.486a12.05,12.05,0,0,0,9.133,0C32.43,39.583,34.113,43.838,33.819,46.927Z" fill="#1e90ff"/><path d="M15.186,27.263a11.989,11.989,0,0,0,.9,4.567c-1.142.6-5.4,2.283-8.486,1.989a20.788,20.788,0,0,1,0-13.112c3.088-.294,7.344,1.389,8.486,1.989a11.989,11.989,0,0,0-.9,4.567Z" fill="#1e90ff"/></g></g></svg>