<svg xmlns="http://www.w3.org/2000/svg" width="100.945" height="100.946" viewBox="0 0 100.945 100.946"><g transform="translate(-70.634 -123.08)"><path d="M225.3,127.323A46.25,46.25,0,0,1,265.07,150l3.689-2.13A50.446,50.446,0,0,0,225.3,123.08v4.243Z" transform="translate(-104.197 0)" fill="#1e90ff"/><path d="M94.25,347.2l-3.689,2.13a50.453,50.453,0,0,0,43.97,25.679v-4.242A46.261,46.261,0,0,1,94.25,347.2Z" transform="translate(-13.424 -150.986)" fill="#ff8c00"/><path d="M350.854,199.051l-3.689,2.13a46.139,46.139,0,0,1,.515,46.215l3.688,2.13a50.51,50.51,0,0,0-.515-50.475Z" transform="translate(-186.292 -51.18)" fill="#ff8c00"/><path d="M225.3,370.769h0v4.242a50.453,50.453,0,0,0,43.97-25.679l-3.688-2.13A46.262,46.262,0,0,1,225.3,370.769Z" transform="translate(-104.197 -150.986)" fill="#1e90ff"/><path d="M135.593,127.323V123.08a50.445,50.445,0,0,0-43.455,24.791L95.827,150A46.251,46.251,0,0,1,135.593,127.323Z" transform="translate(-14.487 0)" fill="#ff8c00"/><path d="M74.876,224.733a45.944,45.944,0,0,1,6.464-23.552l-3.689-2.13a50.51,50.51,0,0,0-.515,50.475l3.689-2.13A45.945,45.945,0,0,1,74.876,224.733Z" transform="translate(0 -51.18)" fill="#1e90ff"/></g></svg>