<svg xmlns="http://www.w3.org/2000/svg" width="97.713" height="97.712" viewBox="0 0 97.713 97.712"><g transform="translate(0.001)"><path d="M22.588,181.039l-13.9,9.49c-4.8,0-8.684-13.379-8.684-18.175a8.686,8.686,0,0,1,8.684-8.686H65.241a7.364,7.364,0,0,1,7.366,7.366v3.694" transform="translate(0 -132.433)" fill="#ce6209"/><path d="M92.655,5.054V48.606H49.575V5.054A5.054,5.054,0,0,1,54.631,0H87.6a5.055,5.055,0,0,1,5.056,5.054Zm0,0" transform="translate(-40.114 0)" fill="#3c3f4d"/><path d="M106.3,48.89V86.1H71.64V48.89a2.551,2.551,0,0,1,2.55-2.55h29.556a2.55,2.55,0,0,1,2.55,2.55Zm0,0" transform="translate(-57.968 -37.496)" fill="#c4e2f2"/><path d="M227.132,48.889V95.051a2.55,2.55,0,0,1-2.55,2.55h-3.607a2.551,2.551,0,0,0,2.551-2.55V48.889a2.55,2.55,0,0,0-2.551-2.55h3.607A2.549,2.549,0,0,1,227.132,48.889Zm0,0" transform="translate(-178.804 -37.496)" fill="#83b2c6"/><path d="M198.054,104.031H155.786a5.542,5.542,0,0,0-5.543,5.543v23.74a5.543,5.543,0,0,0,5.543,5.543h42.268a6.005,6.005,0,0,0,6-6.006V110.036a6,6,0,0,0-6-6Zm0,0" transform="translate(-121.57 -84.177)" fill="#83b2c6"/><path d="M220.39,104.031H178.122a5.542,5.542,0,0,0-5.543,5.543v23.74a5.543,5.543,0,0,0,5.543,5.543H220.39a6.006,6.006,0,0,0,6-6.006V110.036a6.005,6.005,0,0,0-6-6Zm0,0" transform="translate(-139.644 -84.177)" fill="#ff491f"/><path d="M172.578,145.1h53.816v7.283H172.578Zm0,0" transform="translate(-139.643 -117.41)" fill="#2d303b"/><path d="M106.074,221.617H178.75v41.819H106.074Zm0,0" transform="translate(-85.831 -179.322)" fill="#83b2c6"/><path d="M131.188,221.617h72.676v41.819H131.188Zm0,0" transform="translate(-106.152 -179.322)" fill="#32cc77"/><path d="M224.239,276.082V262.3a7.731,7.731,0,0,1-7.73-7.73H171.87a7.73,7.73,0,0,1-7.729,7.73v13.782a7.729,7.729,0,0,1,7.729,7.729h44.639A7.729,7.729,0,0,1,224.239,276.082Zm0,0" transform="translate(-132.816 -205.987)" fill="#1fb25e"/><path d="M402.692,326.327H397.9a1.5,1.5,0,0,1,0-3h4.792a1.5,1.5,0,1,1,0,3Zm0,0" transform="translate(-320.751 -261.625)" fill="#32cc77"/><path d="M472.751,249.731a1.5,1.5,0,1,1,1.485-1.313A1.509,1.509,0,0,1,472.751,249.731Zm0,0" transform="translate(-381.327 -199.651)" fill="#1fb25e"/><path d="M472.75,402.957a1.5,1.5,0,1,1,1.477-1.25A1.509,1.509,0,0,1,472.75,402.957Zm0,0" transform="translate(-381.326 -323.634)" fill="#1fb25e"/><path d="M72.607,225.23V259.6a7.364,7.364,0,0,1-7.366,7.366H8.684A8.684,8.684,0,0,1,0,258.285V209.179a8.684,8.684,0,0,0,8.684,8.685H65.241a7.366,7.366,0,0,1,7.366,7.366Zm0,0" transform="translate(0 -169.258)" fill="#ff8e1d"/><path d="M9.461,217.865v49.106H8.684A8.684,8.684,0,0,1,0,258.286V209.18a8.684,8.684,0,0,0,8.684,8.685Zm0,0" transform="translate(0 -169.259)" fill="#e2720e"/><path d="M288.258,357.168a5.685,5.685,0,1,1-4.239-5.5A5.691,5.691,0,0,1,288.258,357.168Zm0,0" transform="translate(-224.035 -284.399)" fill="#ffbe1d"/><path d="M300.578,357.961a4.384,4.384,0,1,1-4.239-5.5A5.691,5.691,0,0,1,300.578,357.961Zm0,0" transform="translate(-236.356 -285.192)" fill="#ffe14d"/></g></svg>