<svg xmlns="http://www.w3.org/2000/svg" width="18.879" height="18.879" viewBox="0 0 18.879 18.879">
  <g id="Icon_ionic-ios-checkbox-outline" data-name="Icon ionic-ios-checkbox-outline" transform="translate(-4.5 -4.5)">
    <path id="Path_837" data-name="Path 837" d="M21.806,4.5H6.073A1.572,1.572,0,0,0,4.5,6.073V21.806a1.572,1.572,0,0,0,1.573,1.573H21.806a1.572,1.572,0,0,0,1.573-1.573V6.073A1.572,1.572,0,0,0,21.806,4.5ZM22,21.609a.394.394,0,0,1-.393.393H6.27a.394.394,0,0,1-.393-.393V6.27a.394.394,0,0,1,.393-.393H21.609A.394.394,0,0,1,22,6.27Z" fill="#5f6368"/>
  </g>
</svg>
