<svg xmlns="http://www.w3.org/2000/svg" width="8.172" height="5.448" viewBox="0 0 8.172 5.448">
  <g id="arrow" transform="translate(8.172) rotate(90)">
    <g id="Group_174" data-name="Group 174">
      <path id="Path_154" data-name="Path 154" d="M5.3,3.767,1.173.131A.54.54,0,0,0,.815,0,.54.54,0,0,0,.456.131L.152.4a.411.411,0,0,0,0,.632L3.617,4.084.148,7.142a.411.411,0,0,0,0,.632l.3.268a.54.54,0,0,0,.359.131.54.54,0,0,0,.359-.131L5.3,4.4a.414.414,0,0,0,0-.634Z" fill="#5f6368"/>
    </g>
  </g>
</svg>
