<svg xmlns="http://www.w3.org/2000/svg" width="18" height="24" viewBox="0 0 18 24">
  <path id="Icon_awesome-file-pdf" data-name="Icon awesome-file-pdf" d="M8.527,12a4.523,4.523,0,0,1-.094-2.2C8.827,9.806,8.789,11.536,8.527,12Zm-.08,2.212a21.629,21.629,0,0,1-1.331,2.939,17.261,17.261,0,0,1,2.948-1.027,6.072,6.072,0,0,1-1.617-1.912Zm-4.411,5.85c0,.037.619-.253,1.636-1.884A6.479,6.479,0,0,0,4.036,20.067ZM11.625,7.5H18V22.875A1.122,1.122,0,0,1,16.875,24H1.125A1.122,1.122,0,0,1,0,22.875V1.125A1.122,1.122,0,0,1,1.125,0H10.5V6.375A1.128,1.128,0,0,0,11.625,7.5Zm-.375,8.053a4.7,4.7,0,0,1-2-2.522,6.738,6.738,0,0,0,.291-3.009A1.174,1.174,0,0,0,7.3,9.7a7.794,7.794,0,0,0,.38,3.609,44.017,44.017,0,0,1-1.913,4.022s0,0-.009,0c-1.27.652-3.45,2.086-2.555,3.188A1.457,1.457,0,0,0,4.209,21c.839,0,1.673-.844,2.864-2.9a26.719,26.719,0,0,1,3.7-1.088,7.1,7.1,0,0,0,3,.914,1.213,1.213,0,0,0,.923-2.034C14.048,15.253,12.155,15.436,11.25,15.553ZM17.672,4.922,13.078.328a1.124,1.124,0,0,0-.8-.328H12V6h6V5.714A1.121,1.121,0,0,0,17.672,4.922ZM14.2,16.889c.192-.127-.117-.558-2.006-.422C13.931,17.208,14.2,16.889,14.2,16.889Z" fill="#1a73e8"/>
</svg>
