<svg xmlns="http://www.w3.org/2000/svg" width="26.998" height="24" viewBox="0 0 26.998 24">
  <path id="Icon_awesome-file-export" data-name="Icon awesome-file-export" d="M18,5.714a1.121,1.121,0,0,0-.328-.792L13.083.328a1.124,1.124,0,0,0-.8-.328H12V6h6Zm8.766,8.723L22.28,9.919a.752.752,0,0,0-1.284.53V13.5H18v3h3v3.056a.752.752,0,0,0,1.284.53l4.486-4.523A.8.8,0,0,0,26.766,14.438ZM9,15.75v-1.5a.752.752,0,0,1,.75-.75H18v-6H11.625A1.128,1.128,0,0,1,10.5,6.375V0H1.125A1.122,1.122,0,0,0,0,1.125v21.75A1.122,1.122,0,0,0,1.125,24h15.75A1.122,1.122,0,0,0,18,22.875V16.5H9.75A.752.752,0,0,1,9,15.75Z" fill="#1a73e8"/>
</svg>
