<svg xmlns="http://www.w3.org/2000/svg" width="38.72" height="45.358" viewBox="0 0 38.72 45.358">
  <g id="Group_742" data-name="Group 742" transform="translate(-126 -511.303)">
    <g id="loca" transform="translate(88.533 511.303)">
      <path id="Path_820" data-name="Path 820" d="M56.827,45.358a1.293,1.293,0,0,1-.7-.2,60.932,60.932,0,0,1-9.252-7.607c-6.244-6.27-9.41-12.389-9.41-18.186a19.36,19.36,0,1,1,38.72,0c0,5.645-2.994,11.595-8.9,17.683a1.294,1.294,0,0,1-1.857-1.8C69.156,31.4,73.6,25.525,73.6,19.36a16.772,16.772,0,1,0-33.544,0c0,10.853,13.522,20.889,16.774,23.144.73-.5,1.973-1.394,3.455-2.589a1.294,1.294,0,0,1,1.625,2.014,53.96,53.96,0,0,1-4.385,3.226A1.292,1.292,0,0,1,56.827,45.358Z" fill="#5f6368"/>
      <path id="Path_821" data-name="Path 821" d="M151.367,98.53A11.265,11.265,0,1,1,140.1,87.265,11.278,11.278,0,0,1,151.367,98.53Z" transform="translate(-83.276 -79.534)" fill="#5f6368"/>
      <g id="Group_713" data-name="Group 713" transform="translate(44.268 6.437)">
        <path id="Path_822" data-name="Path 822" d="M126.792,97.778a12.559,12.559,0,1,1,12.559-12.559A12.573,12.573,0,0,1,126.792,97.778Zm0-22.53a9.971,9.971,0,1,0,9.971,9.971A9.983,9.983,0,0,0,126.792,75.248Z" transform="translate(-114.233 -72.66)" fill="#5f6368"/>
        <path id="Path_823" data-name="Path 823" d="M214.993,149.366c-2.038-.051-3.57-1.145-3.57-2.088,0-.471.421-1.179.943-1.179.64,0,1.145,1.095,2.627,1.263v-3.351c-1.532-.573-3.267-1.229-3.267-3.385,0-2.139,1.583-3.065,3.267-3.284v-.471c0-.219.253-.421.573-.421.286,0,.573.2.573.421v.438c1.095.034,2.88.354,2.88,1.33,0,.387-.269,1.162-.892,1.162-.471,0-.859-.539-1.987-.623v2.964c1.5.556,3.183,1.314,3.183,3.6a3.435,3.435,0,0,1-3.183,3.57v.522c0,.219-.286.421-.573.421-.32,0-.573-.2-.573-.421v-.471h0Zm.135-7.595v-2.543c-.842.135-1.347.539-1.347,1.179C213.781,141.148,214.353,141.468,215.128,141.772Zm.876,2.644v2.93a1.376,1.376,0,0,0,1.263-1.381C217.266,145.139,216.728,144.735,216,144.415Z" transform="translate(-202.813 -130.799)" fill="#5f6368"/>
      </g>
    </g>
    <g id="Group_714" data-name="Group 714" transform="translate(-172.894 262.947)">
      <g id="Group_635" data-name="Group 635" transform="translate(311.452 263)">
        <path id="Path_764" data-name="Path 764" d="M316.456,289.319a1.558,1.558,0,0,1-.9,2.012l-.043.014a1.558,1.558,0,0,1-2.012-.9l-1.947-5.065a1.558,1.558,0,0,1,.9-2.012l.043-.014a1.558,1.558,0,0,1,2.012.9Z" transform="translate(-311.452 -281.797)" fill="#fff"/>
        <path id="Path_765" data-name="Path 765" d="M400.172,263h-3.75a1.565,1.565,0,0,0-1.458,1l-.711,1.846h0l-1.8,4.677a1.559,1.559,0,0,0,.9,2.012l.043.014a1.558,1.558,0,0,0,2.012-.9l1.947-5.065a6.733,6.733,0,0,0,.23-.675h2.586a1.508,1.508,0,0,0,1.559-1.437v-.043A1.5,1.5,0,0,0,400.172,263Z" transform="translate(-386.539 -263)" fill="#fff"/>
        <path id="Path_766" data-name="Path 766" d="M370.356,289.319a1.558,1.558,0,0,1-.9,2.012l-.043.014a1.558,1.558,0,0,1-2.012-.9l-1.947-5.065a1.558,1.558,0,0,1,.9-2.012l.043-.014a1.558,1.558,0,0,1,2.012.9Z" transform="translate(-361.479 -281.797)" fill="#fff" opacity="0.4"/>
        <path id="Path_767" data-name="Path 767" d="M368.5,285.527l-1.473,3.844-1.473-3.844a1.558,1.558,0,0,1,.9-2.012l.043-.014a1.456,1.456,0,0,1,1.063,0l.043.014A1.553,1.553,0,0,1,368.5,285.527Z" transform="translate(-361.572 -281.934)" fill="#fff"/>
        <path id="Path_768" data-name="Path 768" d="M338.456,289.319a1.558,1.558,0,0,0,.9,2.012l.043.014a1.558,1.558,0,0,0,2.012-.9l1.947-5.065a1.558,1.558,0,0,0-.9-2.012l-.043-.014a1.558,1.558,0,0,0-2.012.9Z" transform="translate(-336.419 -281.797)" fill="#fff" opacity="0.3"/>
      </g>
    </g>
  </g>
</svg>
