<svg xmlns="http://www.w3.org/2000/svg" width="36.637" height="53.26" viewBox="0 0 36.637 53.26">
  <g id="Group_740" data-name="Group 740" transform="translate(-215.374 -408.339)">
    <g id="spr" transform="translate(191.287 408.339)">
      <path id="Path_809" data-name="Path 809" d="M190.136,167.171l-6.179,5.058-6.179-5.058,4.065-18.124h4.227Z" transform="translate(-141.552 -136.003)" fill="#fff"/>
      <g id="Group_697" data-name="Group 697" transform="translate(29.692)">
        <path id="Path_810" data-name="Path 810" d="M169.74,160.029a1.2,1.2,0,0,1-.772-.284l-6.179-5.216a1.28,1.28,0,0,1-.417-1.248l4.065-18.69a1.228,1.228,0,0,1,1.19-.982h4.227a1.228,1.228,0,0,1,1.19.982l4.065,18.69a1.28,1.28,0,0,1-.417,1.248l-6.179,5.216A1.2,1.2,0,0,1,169.74,160.029Zm-4.824-6.955,4.824,4.073,4.824-4.073-3.687-16.951H168.6Z" transform="translate(-157.027 -120.784)" fill="#5f6368"/>
        <path id="Path_811" data-name="Path 811" d="M100.6,15.1a2.358,2.358,0,0,1-2.059-1.209L95.205,7.906a1.218,1.218,0,0,1-.154-.593V3.024A3.017,3.017,0,0,1,99.61.424l7.932,4.693A1.22,1.22,0,0,1,107.9,6.9l-5.415,7.261A2.333,2.333,0,0,1,100.6,15.1ZM97.49,7l3.117,5.6,4.526-6.07-6.765-4a.571.571,0,0,0-.293-.084.587.587,0,0,0-.585.585Z" transform="translate(-95.051)" fill="#5f6368"/>
        <path id="Path_812" data-name="Path 812" d="M258.772,15.1h0a2.333,2.333,0,0,1-1.886-.947L251.471,6.9a1.22,1.22,0,0,1,.357-1.778L259.76.424a3.018,3.018,0,0,1,4.559,2.6V7.313a1.22,1.22,0,0,1-.154.593l-3.334,5.989A2.357,2.357,0,0,1,258.772,15.1Zm-4.535-8.579,4.526,6.07L261.88,7V3.024a.587.587,0,0,0-.585-.585.571.571,0,0,0-.293.084Z" transform="translate(-238.893)" fill="#5f6368"/>
      </g>
      <path id="Path_813" data-name="Path 813" d="M204.533,78.068h-1.685L199.2,82.955l.839,2.562h7.295l.839-2.562Z" transform="translate(-161.285 -71.608)" fill="#5f6368"/>
      <g id="Group_698" data-name="Group 698" transform="translate(24.087 4.947)">
        <path id="Path_814" data-name="Path 814" d="M193.122,72.518h-7.295a1.219,1.219,0,0,1-1.159-.84l-.839-2.562a1.219,1.219,0,0,1,.181-1.108l3.644-4.887a1.219,1.219,0,0,1,.978-.49h1.685a1.22,1.22,0,0,1,.978.49l3.644,4.887a1.22,1.22,0,0,1,.181,1.108l-.839,2.562A1.22,1.22,0,0,1,193.122,72.518Zm-6.411-2.439h5.527l.367-1.121-2.9-3.889h-.461l-2.9,3.889Z" transform="translate(-171.157 -62.631)" fill="#5f6368"/>
        <path id="Path_815" data-name="Path 815" d="M325.859,164.638H320a1.219,1.219,0,0,1,0-2.439h5.856a3.849,3.849,0,0,0,3.845-3.845v-19.7a2.422,2.422,0,0,0-.714-1.724,1.219,1.219,0,0,1,1.725-1.725,4.845,4.845,0,0,1,1.428,3.449v19.7A6.291,6.291,0,0,1,325.859,164.638Z" transform="translate(-295.506 -116.873)" fill="#5f6368"/>
        <path id="Path_816" data-name="Path 816" d="M41.186,125.858H30.371c-3.465,0-6.284-3.831-6.284-8.541V90.541a7.936,7.936,0,0,1,1.428-4.687L29.894,79.9a1.009,1.009,0,0,1,1.725,0,2.1,2.1,0,0,1,0,2.344L27.24,88.2a3.968,3.968,0,0,0-.714,2.344v26.776c0,2.882,1.725,5.226,3.845,5.226H41.186c.673,0,1.219.742,1.219,1.657S41.859,125.858,41.186,125.858Z" transform="translate(-24.087 -78.092)" fill="#5f6368"/>
      </g>
    </g>
    <g id="Group_699" data-name="Group 699" transform="translate(-80.893 188.947)">
      <g id="Group_635" data-name="Group 635" transform="translate(311.452 263)">
        <path id="Path_764" data-name="Path 764" d="M316.456,289.319a1.558,1.558,0,0,1-.9,2.012l-.043.014a1.558,1.558,0,0,1-2.012-.9l-1.947-5.065a1.558,1.558,0,0,1,.9-2.012l.043-.014a1.558,1.558,0,0,1,2.012.9Z" transform="translate(-311.452 -281.797)" fill="#5f6368"/>
        <path id="Path_765" data-name="Path 765" d="M400.172,263h-3.75a1.565,1.565,0,0,0-1.458,1l-.711,1.846h0l-1.8,4.677a1.559,1.559,0,0,0,.9,2.012l.043.014a1.558,1.558,0,0,0,2.012-.9l1.947-5.065a6.733,6.733,0,0,0,.23-.675h2.586a1.508,1.508,0,0,0,1.559-1.437v-.043A1.5,1.5,0,0,0,400.172,263Z" transform="translate(-386.539 -263)" fill="#5f6368"/>
        <path id="Path_766" data-name="Path 766" d="M370.356,289.319a1.558,1.558,0,0,1-.9,2.012l-.043.014a1.558,1.558,0,0,1-2.012-.9l-1.947-5.065a1.558,1.558,0,0,1,.9-2.012l.043-.014a1.558,1.558,0,0,1,2.012.9Z" transform="translate(-361.479 -281.797)" fill="#5f6368" opacity="0.4"/>
        <path id="Path_767" data-name="Path 767" d="M368.5,285.527l-1.473,3.844-1.473-3.844a1.558,1.558,0,0,1,.9-2.012l.043-.014a1.456,1.456,0,0,1,1.063,0l.043.014A1.553,1.553,0,0,1,368.5,285.527Z" transform="translate(-361.572 -281.934)" fill="#5f6368"/>
        <path id="Path_768" data-name="Path 768" d="M338.456,289.319a1.558,1.558,0,0,0,.9,2.012l.043.014a1.558,1.558,0,0,0,2.012-.9l1.947-5.065a1.558,1.558,0,0,0-.9-2.012l-.043-.014a1.558,1.558,0,0,0-2.012.9Z" transform="translate(-336.419 -281.797)" fill="#5f6368" opacity="0.3"/>
      </g>
    </g>
  </g>
</svg>
