<svg xmlns="http://www.w3.org/2000/svg" width="38.483" height="53.322" viewBox="0 0 38.483 53.322">
  <g id="Group_739" data-name="Group 739" transform="translate(-126.236 -408.339)">
    <g id="pri" transform="translate(54.994 408.339)">
      <path id="Path_804" data-name="Path 804" d="M111.562,22.693a1.472,1.472,0,0,1-1.472-1.472V15.2a15.2,15.2,0,0,1,30.391,0v.453a1.472,1.472,0,0,1-2.944,0V15.2a12.252,12.252,0,1,0-24.5,0v6.026A1.472,1.472,0,0,1,111.562,22.693Z" transform="translate(-34.802)" fill="#5f6368"/>
      <g id="Group_694" data-name="Group 694" transform="translate(71.242 19.75)">
        <path id="Path_807" data-name="Path 807" d="M108.253,208.448a1.472,1.472,0,0,1-1.472-1.472V194.943a2.365,2.365,0,0,0-2.362-2.362H76.548a2.365,2.365,0,0,0-2.362,2.362v2.268a1.472,1.472,0,0,1-2.944,0v-2.268a5.312,5.312,0,0,1,5.306-5.306H104.42a5.312,5.312,0,0,1,5.306,5.306v12.034A1.472,1.472,0,0,1,108.253,208.448Z" transform="translate(-71.242 -189.637)" fill="#5f6368"/>
        <path id="Path_808" data-name="Path 808" d="M104.421,336.912H76.55a5.312,5.312,0,0,1-5.306-5.306V318.03a1.472,1.472,0,0,1,2.944,0v13.576a2.365,2.365,0,0,0,2.363,2.363h27.871a2.365,2.365,0,0,0,2.363-2.363,1.472,1.472,0,1,1,2.944,0A5.313,5.313,0,0,1,104.421,336.912Z" transform="translate(-71.244 -303.34)" fill="#5f6368"/>
      </g>
    </g>
    <g id="Group_695" data-name="Group 695" transform="translate(-195.876 167.781)">
      <g id="Group_635" data-name="Group 635" transform="translate(333.671 272.045)">
        <path id="Path_764" data-name="Path 764" d="M317.618,290.728a1.92,1.92,0,0,1-1.107,2.479l-.053.018a1.92,1.92,0,0,1-2.479-1.107l-2.4-6.241a1.92,1.92,0,0,1,1.107-2.479l.053-.018a1.92,1.92,0,0,1,2.479,1.107Z" transform="translate(-311.452 -281.459)" fill="#5f6368"/>
        <path id="Path_765" data-name="Path 765" d="M401.988,263h-4.621a1.929,1.929,0,0,0-1.8,1.23l-.876,2.275h0l-2.213,5.763a1.92,1.92,0,0,0,1.107,2.479l.053.018a1.92,1.92,0,0,0,2.479-1.107l2.4-6.241a8.285,8.285,0,0,0,.283-.832h3.187a1.858,1.858,0,0,0,1.921-1.771v-.053A1.851,1.851,0,0,0,401.988,263Z" transform="translate(-385.19 -263)" fill="#5f6368"/>
        <path id="Path_766" data-name="Path 766" d="M371.518,290.728a1.92,1.92,0,0,1-1.107,2.479l-.053.018a1.92,1.92,0,0,1-2.479-1.107l-2.4-6.241a1.92,1.92,0,0,1,1.107-2.479l.053-.018a1.92,1.92,0,0,1,2.479,1.107Z" transform="translate(-360.58 -281.459)" fill="#5f6368" opacity="0.4"/>
        <path id="Path_767" data-name="Path 767" d="M369.21,286.02l-1.815,4.736-1.815-4.736a1.92,1.92,0,0,1,1.107-2.479l.053-.018a1.794,1.794,0,0,1,1.31,0l.053.018A1.914,1.914,0,0,1,369.21,286.02Z" transform="translate(-360.671 -281.594)" fill="#5f6368"/>
        <path id="Path_768" data-name="Path 768" d="M338.48,290.728a1.92,1.92,0,0,0,1.107,2.479l.053.018a1.92,1.92,0,0,0,2.479-1.107l2.4-6.241a1.92,1.92,0,0,0-1.107-2.479l-.053-.018a1.92,1.92,0,0,0-2.479,1.107Z" transform="translate(-335.97 -281.459)" fill="#5f6368" opacity="0.3"/>
      </g>
    </g>
  </g>
</svg>
