<svg xmlns="http://www.w3.org/2000/svg" width="38.922" height="63.639" viewBox="0 0 38.922 63.639">
  <g id="Group_741" data-name="Group 741" transform="translate(-296.004 -400.291)">
    <g id="storeconfig" transform="translate(283.646 432.229) rotate(-45)">
      <path id="Path_817" data-name="Path 817" d="M15.3,27.355H11.982a1.293,1.293,0,1,1,0-2.587H15.3a.308.308,0,0,0,.244-.186l.236-.855a1.293,1.293,0,0,1,.688-.823l1.448-.693a1.294,1.294,0,0,1,1.2.042l.948.538a.307.307,0,0,0,.3-.041l2.345-2.345a.308.308,0,0,0,.041-.3l-.483-.851a1.293,1.293,0,0,1-.068-1.139l.607-1.447a1.293,1.293,0,0,1,.849-.746l.928-.256a.307.307,0,0,0,.186-.243V12.1a.3.3,0,0,0-.093-.182.25.25,0,0,0-.085-.059l-.893-.221a1.293,1.293,0,0,1-.9-.8l-.611-1.624a1.294,1.294,0,0,1,.085-1.094l.5-.877a.308.308,0,0,0-.041-.3L20.382,4.6a.307.307,0,0,0-.3-.041q-.057.032-.116.058l-1.251.553a1.293,1.293,0,0,1-1.134-.043s-.328-.176-.658-.356C16.076,4.3,15.792,4.149,15.64,3.6l-.228-.828a.225.225,0,0,0-.061-.093.294.294,0,0,0-.183-.093H11.851a.308.308,0,0,0-.243.186l-.252.912a1.293,1.293,0,0,1-.6.774L9.484,5.2a1.294,1.294,0,0,1-1.356-.034l-.923-.6a.313.313,0,0,0-.287.049L4.573,6.96a.308.308,0,0,0-.041.3l.483.851a1.293,1.293,0,0,1,.069,1.135l-.622,1.5a1.293,1.293,0,0,1-.851.75l-.84.231a.308.308,0,0,0-.185.244v3.316a1.293,1.293,0,1,1-2.587,0V11.97A2.885,2.885,0,0,1,2.084,9.233l.232-.064.136-.328-.171-.3A2.885,2.885,0,0,1,2.743,5.13L5.088,2.785A2.884,2.884,0,0,1,8.5,2.323l.067.041.307.2L9,2.488l.111-.4A2.884,2.884,0,0,1,11.851,0h3.318a2.874,2.874,0,0,1,2.011.85,2.811,2.811,0,0,1,.725,1.234l.089.321.252.138.621-.275a2.885,2.885,0,0,1,3.344.5l2.345,2.345a2.884,2.884,0,0,1,.461,3.41l-.2.349.158.42.26.064.034.009a2.808,2.808,0,0,1,1.233.725,2.875,2.875,0,0,1,.851,2.011v3.318a2.883,2.883,0,0,1-2.084,2.737l-.323.089-.118.282.17.3a2.884,2.884,0,0,1-.462,3.41l-2.345,2.345a2.884,2.884,0,0,1-3.409.462l-.361-.205-.307.147-.079.287A2.884,2.884,0,0,1,15.3,27.355Z" transform="translate(17.812 0)" fill="#5f6368"/>
      <path id="Path_818" data-name="Path 818" d="M24.3,9.711a1.512,1.512,0,0,0-.663-.393l-.92-.227L22.1,7.466l.5-.877a1.591,1.591,0,0,0-.251-1.857L20,2.388a1.591,1.591,0,0,0-1.856-.251L16.9,2.69S15.6,2,15.593,1.962l-.228-.827a1.515,1.515,0,0,0-.393-.663A1.572,1.572,0,0,0,13.874,0H10.557a1.591,1.591,0,0,0-1.49,1.135l-.252.912L7.54,2.789l-.974-.634a1.591,1.591,0,0,0-1.857.252L2.365,4.752a1.592,1.592,0,0,0-.252,1.856L2.6,7.46l-.622,1.5-.84.231A1.592,1.592,0,0,0,0,10.677v3.317a1.573,1.573,0,0,0,.472,1.1h0a1.515,1.515,0,0,0,.663.393l.8.222.66,1.619-.468.826a1.591,1.591,0,0,0,.251,1.857l2.345,2.345a1.591,1.591,0,0,0,1.857.251l.826-.469,1.552.642.236.856a1.514,1.514,0,0,0,.393.663,1.572,1.572,0,0,0,1.1.472H14A1.591,1.591,0,0,0,15.5,23.633l.236-.855,1.448-.693.949.538a1.591,1.591,0,0,0,1.856-.252l2.345-2.345a1.591,1.591,0,0,0,.252-1.857l-.483-.851.607-1.447.928-.256a1.591,1.591,0,0,0,1.135-1.491V10.808A1.574,1.574,0,0,0,24.3,9.711Zm-7.328,7.262a6.509,6.509,0,1,1,0-9.206A6.51,6.51,0,0,1,16.968,16.973Z" transform="translate(1.293 18.771)" fill="#fff"/>
      <path id="Path_819" data-name="Path 819" d="M15.3,27.355H11.982A2.874,2.874,0,0,1,9.97,26.5a2.81,2.81,0,0,1-.726-1.234l-.068-.246-.383-.159-.276.157a2.812,2.812,0,0,1-1.387.36,2.873,2.873,0,0,1-2.023-.822L2.762,22.215a2.884,2.884,0,0,1-.461-3.41l.159-.279-.183-.449-.192-.053A2.811,2.811,0,0,1,.851,17.3,2.874,2.874,0,0,1,0,15.286V11.97A2.885,2.885,0,0,1,2.084,9.232l.232-.064.136-.328-.171-.3A2.884,2.884,0,0,1,2.743,5.13L5.088,2.785a2.874,2.874,0,0,1,2.023-.822,2.811,2.811,0,0,1,1.386.36l.067.041.307.2L9,2.488l.111-.4A2.884,2.884,0,0,1,11.851,0h3.318a2.873,2.873,0,0,1,2.011.85A2.81,2.81,0,0,1,17.9,2.084l.089.321.252.138.622-.275a2.817,2.817,0,0,1,1.321-.324,2.872,2.872,0,0,1,2.023.822l2.345,2.345a2.884,2.884,0,0,1,.461,3.41l-.2.35.158.42.26.064.034.009a2.808,2.808,0,0,1,1.234.725,2.875,2.875,0,0,1,.851,2.011v3.317a2.883,2.883,0,0,1-2.085,2.737l-.322.089-.118.282.17.3a2.884,2.884,0,0,1-.462,3.41l-2.345,2.345a2.873,2.873,0,0,1-2.023.822h0a2.812,2.812,0,0,1-1.386-.36l-.361-.205-.307.147-.079.287A2.884,2.884,0,0,1,15.3,27.355ZM8.7,22.135a1.293,1.293,0,0,1,.495.1l1.552.642a1.293,1.293,0,0,1,.752.851l.236.855a.225.225,0,0,0,.061.092.3.3,0,0,0,.182.093H15.3v0a.308.308,0,0,0,.244-.186l.236-.855a1.293,1.293,0,0,1,.688-.823l1.448-.693a1.293,1.293,0,0,1,1.2.042l.948.538a.238.238,0,0,0,.11.023h0a.293.293,0,0,0,.194-.064L22.708,20.4a.308.308,0,0,0,.041-.3l-.483-.851a1.293,1.293,0,0,1-.068-1.139l.607-1.447a1.293,1.293,0,0,1,.849-.746l.928-.256a.307.307,0,0,0,.186-.244V12.1a.3.3,0,0,0-.093-.183.248.248,0,0,0-.085-.059l-.893-.221a1.294,1.294,0,0,1-.9-.8l-.611-1.624a1.294,1.294,0,0,1,.085-1.094l.5-.877a.308.308,0,0,0-.041-.3L20.382,4.6a.293.293,0,0,0-.194-.064.238.238,0,0,0-.109.023c-.038.021-.076.041-.116.058l-1.251.553a1.293,1.293,0,0,1-1.134-.043s-.328-.176-.658-.356C16.076,4.3,15.791,4.149,15.64,3.6l-.228-.828a.227.227,0,0,0-.061-.092.3.3,0,0,0-.183-.093H11.851a.308.308,0,0,0-.243.186l-.252.912a1.294,1.294,0,0,1-.6.774L9.484,5.2a1.294,1.294,0,0,1-1.356-.034l-.922-.6a.267.267,0,0,0-.094-.015.294.294,0,0,0-.194.064L4.572,6.959a.308.308,0,0,0-.041.3l.483.851a1.293,1.293,0,0,1,.069,1.135l-.622,1.5a1.293,1.293,0,0,1-.851.75l-.84.231a.308.308,0,0,0-.185.244v3.316a.3.3,0,0,0,.093.183.225.225,0,0,0,.093.061l.8.222a1.294,1.294,0,0,1,.853.758l.66,1.619a1.293,1.293,0,0,1-.073,1.127l-.468.826a.307.307,0,0,0,.041.3l2.345,2.345a.293.293,0,0,0,.194.064.237.237,0,0,0,.11-.023l.825-.469A1.292,1.292,0,0,1,8.7,22.135Zm4.955-.669a7.8,7.8,0,1,1,5.518-2.285A7.752,7.752,0,0,1,13.659,21.466Zm0-13.019a5.216,5.216,0,1,0,3.689,1.528A5.182,5.182,0,0,0,13.659,8.447Z" transform="translate(0 17.478)" fill="#5f6368"/>
    </g>
    <g id="Group_712" data-name="Group 712" transform="translate(311.864 409.977) rotate(30)">
      <g id="Group_635" data-name="Group 635" transform="translate(0 7.103) rotate(-30)">
        <path id="Path_764" data-name="Path 764" d="M4.679,5.674a1.457,1.457,0,0,1-.84,1.881l-.04.013a1.457,1.457,0,0,1-1.881-.84L.1,1.992A1.457,1.457,0,0,1,.937.111L.977.1a1.457,1.457,0,0,1,1.881.84Z" transform="translate(0 1.361)" fill="#5f6368"/>
        <path id="Path_765" data-name="Path 765" d="M7.313,0H3.806A1.464,1.464,0,0,0,2.442.934L1.777,2.661h0L.1,7.034a1.457,1.457,0,0,0,.84,1.881l.04.013a1.457,1.457,0,0,0,1.881-.84L4.679,3.353a6.3,6.3,0,0,0,.215-.632H7.313A1.41,1.41,0,0,0,8.771,1.377v-.04A1.4,1.4,0,0,0,7.313,0Z" transform="translate(5.435 0)" fill="#5f6368"/>
        <path id="Path_766" data-name="Path 766" d="M4.679,5.674a1.457,1.457,0,0,1-.84,1.881l-.04.013a1.457,1.457,0,0,1-1.881-.84L.1,1.992A1.457,1.457,0,0,1,.937.111L.977.1a1.457,1.457,0,0,1,1.881.84Z" transform="translate(3.621 1.361)" fill="#5f6368" opacity="0.4"/>
        <path id="Path_767" data-name="Path 767" d="M2.852,1.989,1.475,5.583.1,1.989A1.457,1.457,0,0,1,.937.107L.977.094A1.419,1.419,0,0,1,1.475,0a1.419,1.419,0,0,1,.5.094l.04.013A1.452,1.452,0,0,1,2.852,1.989Z" transform="translate(3.628 1.371)" fill="#5f6368"/>
        <path id="Path_768" data-name="Path 768" d="M.1,5.674a1.457,1.457,0,0,0,.84,1.881l.04.013a1.457,1.457,0,0,0,1.881-.84L4.679,1.992A1.457,1.457,0,0,0,3.839.111L3.8.1a1.457,1.457,0,0,0-1.881.84Z" transform="translate(1.807 1.361)" fill="#5f6368" opacity="0.3"/>
      </g>
    </g>
  </g>
</svg>
