<svg xmlns="http://www.w3.org/2000/svg" width="71.06" height="80.033" viewBox="0 0 71.06 80.033">
  <g id="Group_701" data-name="Group 701" transform="translate(-117.22 -17.967)">
    <g id="Group_693" data-name="Group 693" transform="translate(115.802 -115.676) rotate(45)">
      <g id="modüller" transform="translate(120 56.544)">
        <path id="Path_800" data-name="Path 800" d="M226.732,202.395A11.729,11.729,0,1,1,215,190.666,11.742,11.742,0,0,1,226.732,202.395Z" transform="translate(-182.828 -160.284)" fill="#1a73e8"/>
        <g id="Group_691" data-name="Group 691" transform="translate(0 12.456)">
          <path id="Path_803" data-name="Path 803" d="M32.16,61.45a19.341,19.341,0,0,1-3.923-38.279l-6.943-6.943A2.528,2.528,0,0,0,17.718,19.8a1.517,1.517,0,0,1-2.145,2.145l-4.219-4.219A2.528,2.528,0,0,0,7.779,21.3l1.71,1.71.006.006A1.517,1.517,0,0,1,7.35,25.166l0,0a2.528,2.528,0,0,0-3.571,3.579l6.193,6.193a1.517,1.517,0,0,1-2.145,2.145L1.629,30.886a5.565,5.565,0,0,1,2.748-9.369A5.562,5.562,0,0,1,13.5,15.584l.716.716a5.561,5.561,0,0,1,9.223-2.218l9.15,9.15a1.517,1.517,0,0,1-1.019,2.589l-.453.016a16.256,16.256,0,1,0,8.919,1.99A1.517,1.517,0,0,1,41.5,25.171,19.343,19.343,0,0,1,32.16,61.45Z" transform="translate(0 -12.456)" fill="#1a73e8"/>
        </g>
      </g>
      <g id="Group_692" data-name="Group 692" transform="translate(-262.142 135.78) rotate(-45)">
        <g id="Group_635" data-name="Group 635" transform="translate(311.452 263)">
          <path id="Path_764" data-name="Path 764" d="M316.429,289.287a1.55,1.55,0,0,1-.893,2l-.043.014a1.55,1.55,0,0,1-2-.893l-1.937-5.038a1.55,1.55,0,0,1,.893-2l.043-.014a1.55,1.55,0,0,1,2,.893Z" transform="translate(-311.452 -281.804)" fill="#fff"/>
          <path id="Path_765" data-name="Path 765" d="M400.13,263H396.4a1.557,1.557,0,0,0-1.451.993l-.708,1.837h0l-1.787,4.652a1.55,1.55,0,0,0,.893,2l.043.014a1.55,1.55,0,0,0,2-.893l1.937-5.038a6.7,6.7,0,0,0,.229-.672h2.573a1.5,1.5,0,0,0,1.551-1.429v-.043A1.494,1.494,0,0,0,400.13,263Z" transform="translate(-386.57 -263)" fill="#fff"/>
          <path id="Path_766" data-name="Path 766" d="M370.329,289.287a1.55,1.55,0,0,1-.893,2l-.043.014a1.55,1.55,0,0,1-2-.893l-1.937-5.038a1.55,1.55,0,0,1,.893-2l.043-.014a1.55,1.55,0,0,1,2,.893Z" transform="translate(-361.5 -281.804)" fill="#fff" opacity="0.4"/>
          <path id="Path_767" data-name="Path 767" d="M368.485,285.515l-1.465,3.823-1.465-3.823a1.55,1.55,0,0,1,.893-2l.043-.014a1.448,1.448,0,0,1,1.058,0l.043.014A1.545,1.545,0,0,1,368.485,285.515Z" transform="translate(-361.593 -281.942)" fill="#fff"/>
          <path id="Path_768" data-name="Path 768" d="M338.455,289.287a1.55,1.55,0,0,0,.893,2l.043.014a1.55,1.55,0,0,0,2-.893l1.937-5.038a1.55,1.55,0,0,0-.893-2l-.043-.014a1.55,1.55,0,0,0-2,.893Z" transform="translate(-336.429 -281.804)" fill="#fff" opacity="0.3"/>
        </g>
      </g>
    </g>
    <text id="Modules" transform="translate(153 95)" font-size="12" font-family="SegoeUI-Bold, Segoe UI" font-weight="700" letter-spacing="-0.03em"><tspan x="-23.266" y="0">Modules</tspan></text>
  </g>
</svg>
