<svg xmlns="http://www.w3.org/2000/svg" width="70.515" height="41.626" viewBox="0 0 70.515 41.626"><path d="M14.455,44.579a9.3,9.3,0,0,1-4.936,1.344A9.576,9.576,0,0,1,2.437,29.964a9.374,9.374,0,0,1,6.047-3.085,9.982,9.982,0,0,1-.123-1.661A11.684,11.684,0,0,1,11.8,16.906a11.821,11.821,0,0,1,8.347-3.411,11,11,0,0,1,5.663,1.476,16.011,16.011,0,0,1,5.465-5.478,15,15,0,0,1,17.382,1.446,15.259,15.259,0,0,1,5.148,8.88h-.846a10.425,10.425,0,0,0-3.614.564,14.5,14.5,0,0,0-10.811-4.619,16.369,16.369,0,0,0-5.566.956,14.641,14.641,0,0,0-4.773,2.812,14.323,14.323,0,0,0-4.843,7.92,15.567,15.567,0,0,0-3.014.912,10.262,10.262,0,0,0-3.8,2.953,11,11,0,0,0-2.212,3.834,13.893,13.893,0,0,0-.736,4.522,12.656,12.656,0,0,0,.881,4.905Zm49.5-11c4.628,1.146,6.809,3.878,6.536,8.171S67.716,48.461,62.983,49H25.562q-9.275-1.223-9.114-9.586t9.431-9.211Q27.1,21.249,35.046,19.1T48.6,24.046A6.754,6.754,0,0,1,53.446,22.7a12.054,12.054,0,0,1,4.989,1.287,9.834,9.834,0,0,1,4.116,3.922A11.339,11.339,0,0,1,63.97,33.57Z" transform="translate(0 -7.378)" fill="#1e90ff"/></svg>