<svg xmlns="http://www.w3.org/2000/svg" width="38.72" height="36.247" viewBox="0 0 38.72 36.247">
  <g id="lan" transform="translate(0 -16.347)">
    <g id="Group_715" data-name="Group 715" transform="translate(0 16.347)">
      <path id="Path_825" data-name="Path 825" d="M12.8,28.949H5.213a1.079,1.079,0,1,1,0-2.157H12.8a.407.407,0,0,0,.407-.407V18.8a1.079,1.079,0,0,1,2.157,0v7.583A2.567,2.567,0,0,1,12.8,28.949Z" transform="translate(-3.821 -17.62)" fill="#5f6368"/>
      <path id="Path_826" data-name="Path 826" d="M19.019,46.646H4.779A4.784,4.784,0,0,1,0,41.867V27.33a3.077,3.077,0,0,1,.907-2.19l7.886-7.886a3.077,3.077,0,0,1,2.19-.907H22.67a4.784,4.784,0,0,1,4.779,4.779v19.7a1.079,1.079,0,0,1-2.157,0v-19.7A2.625,2.625,0,0,0,22.67,18.5H10.983a.934.934,0,0,0-.665.276L2.433,26.665a.934.934,0,0,0-.276.665V41.867a2.625,2.625,0,0,0,2.622,2.622h14.24a1.078,1.078,0,1,1,0,2.157Z" transform="translate(0 -16.347)" fill="#5f6368"/>
      <path id="Path_827" data-name="Path 827" d="M335.518,187.378a1.079,1.079,0,0,1-1.079-1.079V169.728a1.079,1.079,0,1,1,2.157,0V186.3A1.079,1.079,0,0,1,335.518,187.378Z" transform="translate(-309.147 -157.131)" fill="#5f6368"/>
      <path id="Path_828" data-name="Path 828" d="M22.146,258.778H4.779A4.784,4.784,0,0,1,0,254V240.711a1.079,1.079,0,1,1,2.157,0V254a2.625,2.625,0,0,0,2.622,2.622H22.146a1.079,1.079,0,1,1,0,2.157Z" transform="translate(0 -222.746)" fill="#5f6368"/>
      <path id="Path_829" data-name="Path 829" d="M120.518,305.4a1.079,1.079,0,0,1-.576-1.991l1.155-.727a3.764,3.764,0,0,1,3.477-.279l1.115.474a1.614,1.614,0,0,0,1.27-.006l1.023-.446a3.76,3.76,0,0,1,3.509.265l1.141.718a1.079,1.079,0,0,1-1.149,1.826l-1.141-.719a1.605,1.605,0,0,0-1.5-.113l-1.023.446a3.779,3.779,0,0,1-2.976.014l-1.115-.474a1.607,1.607,0,0,0-1.484.119l-1.155.727A1.073,1.073,0,0,1,120.518,305.4Z" transform="translate(-110.406 -280.49)" fill="#5f6368"/>
    </g>
    <path id="Path_831" data-name="Path 831" d="M402.939,366.836a1.751,1.751,0,0,1-1.6-1.052,14.052,14.052,0,0,0-2.009-2.928c-.148-.178-.275-.333-.372-.457a1.612,1.612,0,0,1-.311-1.244,13.35,13.35,0,0,1,1-2.61c.231-.515.548-1.22.6-1.414a1.077,1.077,0,0,1,1.05-.834h3.233a1.078,1.078,0,0,1,1.047.819c.048.189.359.884.587,1.392a13.364,13.364,0,0,1,1.018,2.665,1.622,1.622,0,0,1-.287,1.2c-.1.135-.227.3-.39.507a17.074,17.074,0,0,0-1.98,2.956A1.75,1.75,0,0,1,402.939,366.836Zm-2.108-5.546.157.19a19.049,19.049,0,0,1,1.959,2.71,22.743,22.743,0,0,1,1.856-2.645l.189-.242c-.148-.454-.547-1.346-.8-1.915-.166-.371-.3-.678-.412-.935h-1.734c-.113.267-.256.587-.43.974C401.367,359.978,400.981,360.838,400.831,361.29Z" transform="translate(-368.477 -314.241)" fill="#5f6368"/>
    <g id="Group_716" data-name="Group 716" transform="translate(30.24 17.66)">
      <path id="Path_833" data-name="Path 833" d="M407.155,75.048h-6.184a1.078,1.078,0,0,1-1.069-.932,3.394,3.394,0,0,1-.032-.459V54.832a1.079,1.079,0,0,1,1.079-1.079h6.229a1.079,1.079,0,0,1,1.079,1.079V73.657a3.4,3.4,0,0,1-.032.459A1.079,1.079,0,0,1,407.155,75.048Zm-5.128-2.157H406.1V55.91h-4.072Z" transform="translate(-399.87 -52.237)" fill="#5f6368"/>
      <path id="Path_834" data-name="Path 834" d="M421.551,35.87h-3.667a1.079,1.079,0,0,1,0-2.157h3.667a1.079,1.079,0,0,1,0,2.157Z" transform="translate(-415.524 -33.713)" fill="#5f6368"/>
    </g>
  </g>
</svg>
