<svg xmlns="http://www.w3.org/2000/svg" width="26.748" height="19.453" viewBox="0 0 26.748 19.453">
  <path id="Icon_material-local-shipping" data-name="Icon material-local-shipping" d="M23.767,7.53H20.12V2.667H3.1A2.439,2.439,0,0,0,.667,5.1V18.472H3.1a3.647,3.647,0,0,0,7.295,0h7.295a3.647,3.647,0,0,0,7.295,0h2.432V12.393L23.767,7.53ZM6.746,20.3a1.824,1.824,0,1,1,1.824-1.824A1.821,1.821,0,0,1,6.746,20.3ZM23.159,9.354l2.383,3.04H20.12V9.354h3.04ZM21.336,20.3a1.824,1.824,0,1,1,1.824-1.824A1.821,1.821,0,0,1,21.336,20.3Z" transform="translate(-0.667 -2.667)" fill="#1e90ff"/>
</svg>
