<svg xmlns="http://www.w3.org/2000/svg" width="88.923" height="32.171" viewBox="0 0 88.923 32.171">
  <g id="logowinfiniti" transform="translate(-488.152 -317.8)">
    <g id="Group_24" data-name="Group 24" transform="translate(488.152 317.8)">
      <path id="Path_46" data-name="Path 46" d="M504.83,358.274a5.194,5.194,0,0,1-2.993,6.7l-.144.048a5.194,5.194,0,0,1-6.7-2.993L488.5,345.151a5.194,5.194,0,0,1,2.993-6.7l.144-.048a5.194,5.194,0,0,1,6.7,2.993Z" transform="translate(-488.152 -333.202)" fill="#eb4c23"/>
      <path id="Path_47" data-name="Path 47" d="M595.116,317.8h-12.5a5.217,5.217,0,0,0-4.861,3.328l-2.371,6.154h0L569.4,342.871a5.194,5.194,0,0,0,2.993,6.7l.144.048a5.194,5.194,0,0,0,6.7-2.993l6.489-16.882a22.449,22.449,0,0,0,.766-2.251h8.621a5.025,5.025,0,0,0,5.2-4.789v-.144A5.007,5.007,0,0,0,595.116,317.8Z" transform="translate(-549.68 -317.8)" fill="#d28910"/>
      <path id="Path_48" data-name="Path 48" d="M558.73,358.274a5.194,5.194,0,0,1-2.993,6.7l-.144.048a5.194,5.194,0,0,1-6.7-2.993L542.4,345.151a5.194,5.194,0,0,1,2.993-6.7l.144-.048a5.194,5.194,0,0,1,6.7,2.993Z" transform="translate(-529.145 -333.202)" fill="#d28910" opacity="0.4"/>
      <path id="Path_49" data-name="Path 49" d="M552.316,345.288,547.407,358.1,542.5,345.288a5.194,5.194,0,0,1,2.993-6.7l.144-.048a4.85,4.85,0,0,1,3.544,0l.144.048A5.176,5.176,0,0,1,552.316,345.288Z" transform="translate(-529.221 -333.315)" fill="#e56528"/>
      <path id="Path_50" data-name="Path 50" d="M515.4,358.274a5.194,5.194,0,0,0,2.993,6.7l.144.048a5.194,5.194,0,0,0,6.7-2.993l6.489-16.882a5.194,5.194,0,0,0-2.993-6.7l-.144-.048a5.194,5.194,0,0,0-6.7,2.993Z" transform="translate(-508.61 -333.202)" fill="#d28910" opacity="0.3"/>
    </g>
    <g id="Group_29" data-name="Group 29" transform="translate(527.099 328.504)">
      <path id="Path_51" data-name="Path 51" d="M821.069,371.163h.215c.431,0,1.1,0,1.533-.024a.938.938,0,0,0,.886-.91v-.455a1.065,1.065,0,0,0-.982-.934c-.407,0-1.149-.024-1.556-.024l-.024-.287v-1.987A1.339,1.339,0,0,0,819.8,365.2h-.359a1.307,1.307,0,0,0-1.125.623l-.072.072a.572.572,0,0,0-.12.335,1.075,1.075,0,0,1-.024.263v3.544h0v4.574a3.478,3.478,0,0,0,.479,1.676,1.728,1.728,0,0,0,.551.623,3.161,3.161,0,0,0,1.461.6c.551.048,1.125.1,1.676.1a2.017,2.017,0,0,0,.647-.1,1.046,1.046,0,0,0,.623-.527,2.052,2.052,0,0,0,.12-1.006,1.149,1.149,0,0,0-1.054-1.006c-.311-.024-1.221-.024-1.533-.024Z" transform="translate(-778.039 -364.553)" fill="#2e2e2e"/>
      <path id="Path_52" data-name="Path 52" d="M678.742,384.965c0-.335,0-.671-.024-.982v-.263a4.642,4.642,0,0,0-.048-.575,3.857,3.857,0,0,0-.431-1.413,3.234,3.234,0,0,0-1.772-1.652,2.667,2.667,0,0,0-2.011.168,4.091,4.091,0,0,0-.551.311c-.144.1-.311.263-.479.239-.024,0-.1-.192-.12-.216-.024-.048-.072-.12-.1-.168a1.022,1.022,0,0,0-.287-.263,1.612,1.612,0,0,0-1.7-.048,1.275,1.275,0,0,0-.527.647,1.547,1.547,0,0,0-.1.479v6.322a1.329,1.329,0,0,0,1.437,1.317,2.412,2.412,0,0,0,.91-.216,1.147,1.147,0,0,0,.575-1.149V384.51c0-.239,0-.5.024-.742a1.161,1.161,0,0,1,.79-1.054,1.023,1.023,0,0,1,1.149.383.9.9,0,0,1,.24.6c0,.215.024.431.024.647v2.706c0,.12.024.551.024.551a1.33,1.33,0,0,0,1.461,1.293,2.412,2.412,0,0,0,.91-.216,1.164,1.164,0,0,0,.6-1.149v-.718C678.718,386.138,678.742,385.539,678.742,384.965Z" transform="translate(-665.859 -375.722)" fill="#2e2e2e"/>
      <path id="Path_53" data-name="Path 53" d="M765.242,384.965c0-.335,0-.671-.024-.982v-.263a4.642,4.642,0,0,0-.048-.575,3.858,3.858,0,0,0-.431-1.413,3.233,3.233,0,0,0-1.772-1.652,2.667,2.667,0,0,0-2.011.168,4.1,4.1,0,0,0-.551.311c-.144.1-.311.263-.479.239-.024,0-.1-.192-.12-.216-.024-.048-.072-.12-.1-.168a1.023,1.023,0,0,0-.287-.263,1.612,1.612,0,0,0-1.7-.048,1.275,1.275,0,0,0-.527.647,1.549,1.549,0,0,0-.1.479v6.322a1.329,1.329,0,0,0,1.437,1.317,2.412,2.412,0,0,0,.91-.216,1.147,1.147,0,0,0,.575-1.149V384.51c0-.239,0-.5.024-.742a1.161,1.161,0,0,1,.79-1.054,1.022,1.022,0,0,1,1.149.383.9.9,0,0,1,.24.6c0,.215.024.431.024.647v2.706c0,.12.024.551.024.551a1.33,1.33,0,0,0,1.461,1.293,2.412,2.412,0,0,0,.91-.216,1.164,1.164,0,0,0,.6-1.149v-.718C765.242,386.138,765.242,385.539,765.242,384.965Z" transform="translate(-731.645 -375.722)" fill="#2e2e2e"/>
      <path id="Path_54" data-name="Path 54" d="M718.184,363.224c-.192.024-.886.048-1.078.048a4.647,4.647,0,0,1-.575.048l-.623.072a4.187,4.187,0,0,0-1.94.862,3.548,3.548,0,0,0-.575.623,3.619,3.619,0,0,0-.647,1.772c-.024.383-.048.766-.048,1.149v6.9a1.406,1.406,0,0,0,1.365,1.413h.192a1.391,1.391,0,0,0,1.365-1.413v-3.736c0-.1.024-.168.12-.168.24,0,.67.024.91.024a1.071,1.071,0,0,0,.742-.287,1.276,1.276,0,0,0,.263-1.533,1.207,1.207,0,0,0-.934-.647c-.24-.048-.479,0-.718-.024a.379.379,0,0,1-.431-.383c0-.287.024-.551.048-.838a.78.78,0,0,1,.1-.335,1.566,1.566,0,0,1,1.125-.718,13.492,13.492,0,0,1,1.389-.072.181.181,0,0,0,.1-.024V363.2A.3.3,0,0,1,718.184,363.224Z" transform="translate(-697.878 -363.032)" fill="#2e2e2e"/>
      <g id="Group_25" data-name="Group 25" transform="translate(21.024 0)">
        <path id="Path_55" data-name="Path 55" d="M741.521,363.961a1.461,1.461,0,1,1-1.461-1.461A1.467,1.467,0,0,1,741.521,363.961Z" transform="translate(-738.6 -362.5)" fill="#2e2e2e" fill-rule="evenodd"/>
        <path id="Path_56" data-name="Path 56" d="M741.55,388.375a1.288,1.288,0,0,1-1.293,1.293h-.263a1.288,1.288,0,0,1-1.293-1.293v-6.082A1.288,1.288,0,0,1,739.993,381h.263a1.288,1.288,0,0,1,1.293,1.293Z" transform="translate(-738.676 -376.57)" fill="#2e2e2e"/>
      </g>
      <g id="Group_26" data-name="Group 26" transform="translate(0 0)">
        <path id="Path_57" data-name="Path 57" d="M653.721,363.961a1.461,1.461,0,1,1-1.461-1.461A1.451,1.451,0,0,1,653.721,363.961Z" transform="translate(-650.8 -362.5)" fill="#2e2e2e" fill-rule="evenodd"/>
        <path id="Path_58" data-name="Path 58" d="M653.85,388.375a1.288,1.288,0,0,1-1.293,1.293h-.263A1.288,1.288,0,0,1,651,388.375v-6.082A1.288,1.288,0,0,1,652.293,381h.263a1.288,1.288,0,0,1,1.293,1.293Z" transform="translate(-650.952 -376.57)" fill="#2e2e2e"/>
      </g>
      <g id="Group_27" data-name="Group 27" transform="translate(35.344 0)">
        <path id="Path_59" data-name="Path 59" d="M801.321,363.961a1.461,1.461,0,1,1-1.461-1.461A1.467,1.467,0,0,1,801.321,363.961Z" transform="translate(-798.4 -362.5)" fill="#2e2e2e" fill-rule="evenodd"/>
        <path id="Path_60" data-name="Path 60" d="M801.35,388.375a1.288,1.288,0,0,1-1.293,1.293h-.263a1.288,1.288,0,0,1-1.293-1.293v-6.082A1.288,1.288,0,0,1,799.793,381h.263a1.288,1.288,0,0,1,1.293,1.293Z" transform="translate(-798.476 -376.57)" fill="#2e2e2e"/>
      </g>
      <g id="Group_28" data-name="Group 28" transform="translate(47.054 0)">
        <path id="Path_61" data-name="Path 61" d="M850.221,363.961a1.461,1.461,0,1,1-1.461-1.461A1.451,1.451,0,0,1,850.221,363.961Z" transform="translate(-847.3 -362.5)" fill="#2e2e2e" fill-rule="evenodd"/>
        <path id="Path_62" data-name="Path 62" d="M850.25,388.375a1.288,1.288,0,0,1-1.293,1.293h-.263a1.288,1.288,0,0,1-1.293-1.293v-6.082A1.288,1.288,0,0,1,848.693,381h.263a1.288,1.288,0,0,1,1.293,1.293Z" transform="translate(-847.376 -376.57)" fill="#2e2e2e"/>
      </g>
    </g>
  </g>
</svg>
