<svg xmlns="http://www.w3.org/2000/svg" width="137.694" height="49.816" viewBox="0 0 137.694 49.816">
  <g id="Group_635" data-name="Group 635" transform="translate(-311.452 -263)">
    <g id="Group_635-2" data-name="Group 635" transform="translate(311.452 263)">
      <path id="Path_764" data-name="Path 764" d="M337.277,314.565a8.043,8.043,0,0,1-4.635,10.382l-.223.074a8.043,8.043,0,0,1-10.382-4.635l-10.049-26.141a8.043,8.043,0,0,1,4.635-10.382l.223-.074a8.043,8.043,0,0,1,10.382,4.635Z" transform="translate(-311.452 -275.742)" fill="#ff5327"/>
      <path id="Path_765" data-name="Path 765" d="M432.712,263H413.357a8.078,8.078,0,0,0-7.527,5.154l-3.671,9.529h0l-9.27,24.139a8.043,8.043,0,0,0,4.635,10.382l.223.074a8.043,8.043,0,0,0,10.382-4.635L418.177,281.5a34.764,34.764,0,0,0,1.187-3.486h13.349c4.412,0,8.046-3.337,8.046-7.416v-.222C440.759,266.337,437.162,263,432.712,263Z" transform="translate(-362.354 -263)" fill="#ff8c00"/>
      <path id="Path_766" data-name="Path 766" d="M391.177,314.565a8.043,8.043,0,0,1-4.635,10.382l-.222.074a8.043,8.043,0,0,1-10.382-4.635l-10.049-26.141a8.043,8.043,0,0,1,4.635-10.382l.223-.074a8.043,8.043,0,0,1,10.382,4.635Z" transform="translate(-345.366 -275.742)" fill="#e28d00" opacity="0.4"/>
      <path id="Path_767" data-name="Path 767" d="M381.191,294.375l-7.6,19.838-7.6-19.838a8.043,8.043,0,0,1,4.635-10.382l.223-.074a7.512,7.512,0,0,1,5.488,0l.222.074A8.016,8.016,0,0,1,381.191,294.375Z" transform="translate(-345.429 -275.836)" fill="#e56528"/>
      <path id="Path_768" data-name="Path 768" d="M338.889,314.565a8.043,8.043,0,0,0,4.635,10.382l.223.074a8.043,8.043,0,0,0,10.382-4.635l10.049-26.141a8.043,8.043,0,0,0-4.635-10.382l-.222-.074a8.043,8.043,0,0,0-10.382,4.635Z" transform="translate(-328.377 -275.742)" fill="#ffb63d" opacity="0.3"/>
    </g>
    <g id="Group_640" data-name="Group 640" transform="translate(371.761 279.575)">
      <path id="Path_769" data-name="Path 769" d="M646,319.633h.334c.667,0,1.706,0,2.373-.037a1.453,1.453,0,0,0,1.372-1.409v-.7a1.649,1.649,0,0,0-1.52-1.446c-.63,0-1.78-.037-2.41-.037l-.037-.445v-3.078a2.073,2.073,0,0,0-2.077-2.076h-.556a2.023,2.023,0,0,0-1.743.964l-.111.111a.887.887,0,0,0-.185.519,1.661,1.661,0,0,1-.037.408v5.488h0v7.082a5.386,5.386,0,0,0,.742,2.6,2.678,2.678,0,0,0,.853.964,4.895,4.895,0,0,0,2.262.927c.853.074,1.743.148,2.6.148a3.126,3.126,0,0,0,1-.148,1.619,1.619,0,0,0,.964-.816,3.177,3.177,0,0,0,.185-1.557,1.778,1.778,0,0,0-1.631-1.557c-.482-.037-1.891-.037-2.373-.037Z" transform="translate(-579.366 -309.399)" fill="#fff"/>
      <path id="Path_770" data-name="Path 770" d="M506.507,332.951c0-.519,0-1.038-.037-1.52v-.408a7.194,7.194,0,0,0-.074-.89,5.973,5.973,0,0,0-.667-2.188,5.007,5.007,0,0,0-2.744-2.559,4.129,4.129,0,0,0-3.115.26,6.342,6.342,0,0,0-.853.482c-.222.148-.482.408-.742.371-.037,0-.148-.3-.185-.334-.037-.074-.111-.185-.148-.26a1.581,1.581,0,0,0-.445-.408,2.5,2.5,0,0,0-2.633-.074,1.974,1.974,0,0,0-.816,1,2.4,2.4,0,0,0-.148.742v9.789a2.058,2.058,0,0,0,2.225,2.039,3.732,3.732,0,0,0,1.409-.334,1.776,1.776,0,0,0,.89-1.78v-4.635c0-.371,0-.779.037-1.149a1.8,1.8,0,0,1,1.224-1.631,1.583,1.583,0,0,1,1.78.593,1.387,1.387,0,0,1,.371.927c0,.334.037.667.037,1v4.19c0,.185.037.853.037.853a2.06,2.06,0,0,0,2.262,2,3.736,3.736,0,0,0,1.409-.334,1.8,1.8,0,0,0,.927-1.78v-1.112C506.47,334.768,506.507,333.841,506.507,332.951Z" transform="translate(-486.558 -318.638)" fill="#fff"/>
      <path id="Path_771" data-name="Path 771" d="M593.007,332.951c0-.519,0-1.038-.037-1.52v-.408a7.194,7.194,0,0,0-.074-.89,5.976,5.976,0,0,0-.667-2.188,5.008,5.008,0,0,0-2.744-2.559,4.13,4.13,0,0,0-3.115.26,6.352,6.352,0,0,0-.853.482c-.223.148-.482.408-.742.371-.037,0-.148-.3-.185-.334-.037-.074-.111-.185-.148-.26A1.578,1.578,0,0,0,584,325.5a2.5,2.5,0,0,0-2.633-.074,1.974,1.974,0,0,0-.816,1,2.393,2.393,0,0,0-.148.742v9.789a2.058,2.058,0,0,0,2.225,2.039,3.732,3.732,0,0,0,1.409-.334,1.776,1.776,0,0,0,.89-1.78v-4.635c0-.371,0-.779.037-1.149a1.8,1.8,0,0,1,1.224-1.631,1.583,1.583,0,0,1,1.78.593,1.386,1.386,0,0,1,.371.927c0,.334.037.667.037,1v4.19c0,.185.037.853.037.853a2.06,2.06,0,0,0,2.262,2,3.736,3.736,0,0,0,1.409-.334,1.8,1.8,0,0,0,.927-1.78v-1.112C593.007,334.768,593.007,333.841,593.007,332.951Z" transform="translate(-540.984 -318.638)" fill="#fff"/>
      <path id="Path_772" data-name="Path 772" d="M544.491,308.437c-.3.037-1.372.074-1.669.074a7.2,7.2,0,0,1-.89.074c-.334.037-.63.074-.964.111a6.482,6.482,0,0,0-3,1.335,5.494,5.494,0,0,0-.89.964,5.6,5.6,0,0,0-1,2.744c-.037.593-.074,1.186-.074,1.78V326.2a2.177,2.177,0,0,0,2.114,2.188h.3a2.153,2.153,0,0,0,2.114-2.188v-5.784c0-.148.037-.259.185-.259.371,0,1.038.037,1.409.037a1.658,1.658,0,0,0,1.149-.445,1.976,1.976,0,0,0,.408-2.373,1.869,1.869,0,0,0-1.446-1c-.371-.074-.742,0-1.112-.037a.587.587,0,0,1-.667-.593c0-.445.037-.853.074-1.3a1.208,1.208,0,0,1,.148-.519,2.424,2.424,0,0,1,1.743-1.112,20.9,20.9,0,0,1,2.151-.111.28.28,0,0,0,.148-.037V308.4A.47.47,0,0,1,544.491,308.437Z" transform="translate(-513.048 -308.14)" fill="#fff"/>
      <g id="Group_636" data-name="Group 636" transform="translate(32.556)">
        <path id="Path_773" data-name="Path 773" d="M566.424,309.962a2.262,2.262,0,1,1-2.262-2.262A2.271,2.271,0,0,1,566.424,309.962Z" transform="translate(-561.9 -307.7)" fill="#fff"/>
        <path id="Path_774" data-name="Path 774" d="M566.412,337.62a1.994,1.994,0,0,1-2,2H564a1.994,1.994,0,0,1-2-2V328.2a1.994,1.994,0,0,1,2-2h.408a1.994,1.994,0,0,1,2,2Z" transform="translate(-561.963 -319.34)" fill="#fff"/>
      </g>
      <g id="Group_637" data-name="Group 637" transform="translate(0)">
        <path id="Path_775" data-name="Path 775" d="M478.624,309.962a2.262,2.262,0,1,1-2.262-2.262A2.247,2.247,0,0,1,478.624,309.962Z" transform="translate(-474.1 -307.7)" fill="#fff"/>
        <path id="Path_776" data-name="Path 776" d="M478.713,337.62a1.994,1.994,0,0,1-2,2H476.3a1.994,1.994,0,0,1-2-2V328.2a1.994,1.994,0,0,1,2-2h.408a1.994,1.994,0,0,1,2,2Z" transform="translate(-474.226 -319.34)" fill="#fff"/>
      </g>
      <g id="Group_638" data-name="Group 638" transform="translate(54.73)">
        <path id="Path_777" data-name="Path 777" d="M626.224,309.962a2.262,2.262,0,1,1-2.262-2.262A2.271,2.271,0,0,1,626.224,309.962Z" transform="translate(-621.7 -307.7)" fill="#fff"/>
        <path id="Path_778" data-name="Path 778" d="M626.212,337.62a1.994,1.994,0,0,1-2,2H623.8a1.994,1.994,0,0,1-2-2V328.2a1.994,1.994,0,0,1,2-2h.408a1.994,1.994,0,0,1,2,2Z" transform="translate(-621.763 -319.34)" fill="#fff"/>
      </g>
      <g id="Group_639" data-name="Group 639" transform="translate(72.861)">
        <path id="Path_779" data-name="Path 779" d="M675.124,309.962a2.262,2.262,0,1,1-2.262-2.262A2.247,2.247,0,0,1,675.124,309.962Z" transform="translate(-670.6 -307.7)" fill="#fff"/>
        <path id="Path_780" data-name="Path 780" d="M675.113,337.62a1.994,1.994,0,0,1-2,2H672.7a1.994,1.994,0,0,1-2-2V328.2a1.994,1.994,0,0,1,2-2h.408a1.994,1.994,0,0,1,2,2Z" transform="translate(-670.663 -319.34)" fill="#fff"/>
      </g>
    </g>
  </g>
</svg>
