<svg xmlns="http://www.w3.org/2000/svg" width="56.085" height="43.635" viewBox="0 0 56.085 43.635"><g transform="translate(1565.623 -1106.748)"><g transform="translate(-1565.623 1106.748)"><g transform="translate(2.854 36.936)"><path d="M-133.594-15.666v.114h.1a.11.11,0,0,0,.057-.014.05.05,0,0,0,.021-.043.048.048,0,0,0-.021-.042.1.1,0,0,0-.057-.014Zm.106-.079a.194.194,0,0,1,.126.036.121.121,0,0,1,.044.1.114.114,0,0,1-.035.087.172.172,0,0,1-.1.042l.139.16h-.108l-.129-.159h-.042v.159h-.09v-.424Zm-.028.571a.335.335,0,0,0,.138-.029.362.362,0,0,0,.112-.076.354.354,0,0,0,.076-.114.363.363,0,0,0,.028-.139.363.363,0,0,0-.028-.139.367.367,0,0,0-.076-.114.362.362,0,0,0-.112-.076.353.353,0,0,0-.138-.026.368.368,0,0,0-.14.026.359.359,0,0,0-.115.076.346.346,0,0,0-.075.114.343.343,0,0,0-.028.139.343.343,0,0,0,.028.139.335.335,0,0,0,.075.114.359.359,0,0,0,.115.076.349.349,0,0,0,.14.029m0-.815a.458.458,0,0,1,.182.036.462.462,0,0,1,.148.1.449.449,0,0,1,.1.146.437.437,0,0,1,.036.177.437.437,0,0,1-.036.177.473.473,0,0,1-.1.146.5.5,0,0,1-.148.1.458.458,0,0,1-.182.036.465.465,0,0,1-.184-.036.479.479,0,0,1-.149-.1.473.473,0,0,1-.1-.146.437.437,0,0,1-.036-.177.437.437,0,0,1,.036-.177.448.448,0,0,1,.1-.146.443.443,0,0,1,.149-.1.465.465,0,0,1,.184-.036m-42.946-1.635a1.381,1.381,0,0,1,1.4-1.474,1.38,1.38,0,0,1,1.387,1.474,1.38,1.38,0,0,1-1.387,1.474,1.381,1.381,0,0,1-1.4-1.474m3.727,0v-2.3h-1v.559a1.745,1.745,0,0,0-1.454-.675,2.307,2.307,0,0,0-2.3,2.417,2.307,2.307,0,0,0,2.3,2.417,1.745,1.745,0,0,0,1.454-.675v.559h1Zm33.823,0a1.381,1.381,0,0,1,1.4-1.474,1.38,1.38,0,0,1,1.387,1.474,1.38,1.38,0,0,1-1.387,1.474,1.381,1.381,0,0,1-1.4-1.474m3.728,0v-4.15h-1v2.407a1.745,1.745,0,0,0-1.454-.675,2.307,2.307,0,0,0-2.3,2.417,2.307,2.307,0,0,0,2.3,2.417,1.745,1.745,0,0,0,1.454-.675v.559h1Zm-25.127-1.521a1.143,1.143,0,0,1,1.165,1.117h-2.389a1.185,1.185,0,0,1,1.224-1.117m.02-.9a2.249,2.249,0,0,0-2.293,2.417,2.27,2.27,0,0,0,2.36,2.417,2.8,2.8,0,0,0,1.887-.645l-.491-.742a2.2,2.2,0,0,1-1.339.482,1.279,1.279,0,0,1-1.377-1.128h3.418c.01-.125.02-.25.02-.385a2.208,2.208,0,0,0-2.186-2.417m12.086,2.417a1.381,1.381,0,0,1,1.4-1.474,1.38,1.38,0,0,1,1.387,1.474,1.38,1.38,0,0,1-1.387,1.474,1.381,1.381,0,0,1-1.4-1.474m3.727,0v-2.3h-1v.559a1.746,1.746,0,0,0-1.454-.675,2.307,2.307,0,0,0-2.3,2.417,2.307,2.307,0,0,0,2.3,2.417,1.746,1.746,0,0,0,1.454-.675v.559h1Zm-9.379,0a2.325,2.325,0,0,0,2.456,2.417,2.41,2.41,0,0,0,1.656-.549l-.481-.809a2.023,2.023,0,0,1-1.2.414,1.375,1.375,0,0,1-1.387-1.474,1.375,1.375,0,0,1,1.387-1.474,2.023,2.023,0,0,1,1.2.414l.481-.809a2.41,2.41,0,0,0-1.656-.549,2.325,2.325,0,0,0-2.456,2.417m12.9-2.417a1.359,1.359,0,0,0-1.214.675v-.559h-.992v4.6h1V-17.9c0-.762.327-1.185.982-1.185a1.623,1.623,0,0,1,.626.116l.309-.944a2.131,2.131,0,0,0-.713-.126m-26.831.482a3.443,3.443,0,0,0-1.877-.482c-1.166,0-1.917.559-1.917,1.474,0,.751.559,1.214,1.588,1.358l.473.067c.549.077.808.222.808.482,0,.356-.366.559-1.049.559a2.451,2.451,0,0,1-1.531-.482l-.472.779a3.321,3.321,0,0,0,1.993.6c1.329,0,2.1-.626,2.1-1.5,0-.809-.606-1.232-1.608-1.377l-.472-.068c-.433-.057-.78-.143-.78-.452,0-.337.327-.539.876-.539a2.97,2.97,0,0,1,1.435.395Zm12.914-.482a1.356,1.356,0,0,0-1.213.675v-.559h-.992v4.6h1V-17.9c0-.762.327-1.185.982-1.185a1.623,1.623,0,0,1,.626.116l.309-.944a2.132,2.132,0,0,0-.713-.126m-8.542.116h-1.637v-1.4h-1.012v1.4h-.934v.915h.934v2.1c0,1.068.414,1.7,1.6,1.7a2.349,2.349,0,0,0,1.252-.356l-.289-.858a1.853,1.853,0,0,1-.886.26c-.5,0-.664-.309-.664-.771v-2.08h1.637Zm-14.966,4.6v-2.889a1.714,1.714,0,0,0-1.811-1.83,1.782,1.782,0,0,0-1.618.819,1.69,1.69,0,0,0-1.521-.819,1.522,1.522,0,0,0-1.348.683v-.568h-1v4.6h1.011v-2.552A1.077,1.077,0,0,1-183.54-19.1c.665,0,1,.433,1,1.214v2.562h1.012v-2.552A1.086,1.086,0,0,1-180.4-19.1c.683,0,1.011.433,1.011,1.214v2.562Z" transform="translate(185.679 21.774)" fill="#231f20"/></g><g transform="translate(54.095 27.406)"><path d="M-3.746-1.725V-2.4h-.175l-.2.462-.2-.462H-4.5v.672h.125v-.507l.19.438h.129l.19-.439v.508Zm-1.112,0v-.558h.225V-2.4h-.573v.114h.225v.558Z" transform="translate(5.207 2.397)" fill="#f79410"/></g><path d="M3358.173,2174.833H3343v-27.262h15.169Z" transform="translate(-3322.547 -2143.863)" fill="#ff5f00"/><g transform="translate(0 0)"><path d="M-54.963-44.471A17.309,17.309,0,0,1-48.342-58.1a17.262,17.262,0,0,0-10.714-3.707A17.337,17.337,0,0,0-76.392-44.471,17.337,17.337,0,0,0-59.056-27.133,17.262,17.262,0,0,0-48.342-30.84a17.309,17.309,0,0,1-6.621-13.631" transform="translate(76.392 61.809)" fill="#eb001b"/></g><g transform="translate(28.033 0)"><path d="M-71.95-44.471A17.337,17.337,0,0,1-89.286-27.133,17.267,17.267,0,0,1-100-30.84a17.306,17.306,0,0,0,6.623-13.631A17.306,17.306,0,0,0-100-58.1a17.267,17.267,0,0,1,10.715-3.707A17.337,17.337,0,0,1-71.95-44.471" transform="translate(100.001 61.809)" fill="#f79e1b"/></g></g></g></svg>