<svg id="menu" xmlns="http://www.w3.org/2000/svg" width="18.979" height="18.979" viewBox="0 0 18.979 18.979">
  <path id="Path_182" data-name="Path 182" d="M2.782,40a2.782,2.782,0,1,0,2.782,2.782A2.785,2.785,0,0,0,2.782,40Z" transform="translate(0 -26.584)" fill="#5f6368"/>
  <path id="Path_183" data-name="Path 183" d="M22.782,40a2.782,2.782,0,1,0,2.782,2.782A2.785,2.785,0,0,0,22.782,40Z" transform="translate(-13.292 -26.584)" fill="#5f6368"/>
  <path id="Path_184" data-name="Path 184" d="M42.782,40a2.782,2.782,0,1,0,2.782,2.782A2.785,2.785,0,0,0,42.782,40Z" transform="translate(-26.584 -26.584)" fill="#5f6368"/>
  <path id="Path_185" data-name="Path 185" d="M2.782,20a2.782,2.782,0,1,0,2.782,2.782A2.785,2.785,0,0,0,2.782,20Z" transform="translate(0 -13.292)" fill="#5f6368"/>
  <path id="Path_186" data-name="Path 186" d="M22.782,20a2.782,2.782,0,1,0,2.782,2.782A2.785,2.785,0,0,0,22.782,20Z" transform="translate(-13.292 -13.292)" fill="#5f6368"/>
  <path id="Path_187" data-name="Path 187" d="M42.782,20a2.782,2.782,0,1,0,2.782,2.782A2.785,2.785,0,0,0,42.782,20Z" transform="translate(-26.584 -13.292)" fill="#5f6368"/>
  <path id="Path_188" data-name="Path 188" d="M2.782,0A2.782,2.782,0,1,0,5.564,2.782,2.785,2.785,0,0,0,2.782,0Z" fill="#5f6368"/>
  <path id="Path_189" data-name="Path 189" d="M22.782,0a2.782,2.782,0,1,0,2.782,2.782A2.785,2.785,0,0,0,22.782,0Z" transform="translate(-13.292)" fill="#5f6368"/>
  <path id="Path_190" data-name="Path 190" d="M42.782,5.564A2.782,2.782,0,1,0,40,2.782,2.785,2.785,0,0,0,42.782,5.564Z" transform="translate(-26.584)" fill="#5f6368"/>
</svg>
