<svg xmlns="http://www.w3.org/2000/svg" width="91.02" height="32.93" viewBox="0 0 91.02 32.93">
  <g id="Group_635" data-name="Group 635" transform="translate(-311.452 -263)">
    <g id="Group_635-2" data-name="Group 635" transform="translate(311.452 263)">
      <path id="Path_764" data-name="Path 764" d="M328.523,303.951a5.317,5.317,0,0,1-3.064,6.863l-.147.049a5.317,5.317,0,0,1-6.863-3.064l-6.642-17.28a5.317,5.317,0,0,1,3.064-6.863l.147-.049a5.317,5.317,0,0,1,6.863,3.064Z" transform="translate(-311.452 -278.288)" fill="#ff5327"/>
      <path id="Path_765" data-name="Path 765" d="M419.031,263H406.237a5.34,5.34,0,0,0-4.976,3.407l-2.427,6.3h0l-6.128,15.956a5.317,5.317,0,0,0,3.064,6.863l.147.049a5.317,5.317,0,0,0,6.863-3.064l6.642-17.28a22.983,22.983,0,0,0,.784-2.3h8.824a5.144,5.144,0,0,0,5.319-4.9v-.147A5.125,5.125,0,0,0,419.031,263Z" transform="translate(-372.523 -263)" fill="#ff8c00"/>
      <path id="Path_766" data-name="Path 766" d="M382.423,303.951a5.317,5.317,0,0,1-3.064,6.863l-.147.049a5.317,5.317,0,0,1-6.863-3.064l-6.642-17.28a5.317,5.317,0,0,1,3.064-6.863l.147-.049a5.316,5.316,0,0,1,6.863,3.064Z" transform="translate(-352.14 -278.288)" fill="#e28d00" opacity="0.4"/>
      <path id="Path_767" data-name="Path 767" d="M375.856,290.655l-5.025,13.113-5.025-13.113a5.317,5.317,0,0,1,3.064-6.863l.147-.049a4.966,4.966,0,0,1,3.628,0l.147.049A5.3,5.3,0,0,1,375.856,290.655Z" transform="translate(-352.216 -278.4)" fill="#e56528"/>
      <path id="Path_768" data-name="Path 768" d="M338.707,303.951a5.317,5.317,0,0,0,3.064,6.863l.147.049a5.317,5.317,0,0,0,6.863-3.064l6.642-17.28a5.317,5.317,0,0,0-3.064-6.863l-.147-.049a5.316,5.316,0,0,0-6.863,3.064Z" transform="translate(-331.758 -278.288)" fill="#ffb63d" opacity="0.3"/>
    </g>
    <g id="Group_640" data-name="Group 640" transform="translate(351.318 273.956)">
      <path id="Path_769" data-name="Path 769" d="M644.439,316.5h.221c.441,0,1.128,0,1.569-.024a.96.96,0,0,0,.907-.931v-.466a1.09,1.09,0,0,0-1-.956c-.417,0-1.176-.025-1.593-.025l-.024-.294v-2.034a1.37,1.37,0,0,0-1.373-1.373h-.368a1.337,1.337,0,0,0-1.152.637l-.074.074a.586.586,0,0,0-.122.343,1.1,1.1,0,0,1-.025.27v3.628h0v4.682a3.56,3.56,0,0,0,.49,1.716,1.77,1.77,0,0,0,.564.637,3.235,3.235,0,0,0,1.5.613c.564.049,1.152.1,1.716.1a2.065,2.065,0,0,0,.662-.1,1.07,1.07,0,0,0,.637-.539,2.1,2.1,0,0,0,.123-1.029,1.176,1.176,0,0,0-1.078-1.029c-.319-.025-1.25-.025-1.569-.025Z" transform="translate(-600.394 -309.738)" fill="#ff8c00"/>
      <path id="Path_770" data-name="Path 770" d="M502.234,330.284c0-.343,0-.686-.024-1v-.27a4.754,4.754,0,0,0-.049-.588,3.948,3.948,0,0,0-.441-1.446,3.31,3.31,0,0,0-1.814-1.691,2.729,2.729,0,0,0-2.059.172,4.192,4.192,0,0,0-.564.319c-.147.1-.319.27-.49.245-.025,0-.1-.2-.123-.221-.025-.049-.074-.123-.1-.172a1.045,1.045,0,0,0-.294-.27,1.65,1.65,0,0,0-1.74-.049,1.3,1.3,0,0,0-.539.662,1.584,1.584,0,0,0-.1.49v6.471a1.36,1.36,0,0,0,1.471,1.348,2.467,2.467,0,0,0,.931-.221,1.174,1.174,0,0,0,.588-1.177v-3.064c0-.245,0-.515.024-.76a1.189,1.189,0,0,1,.809-1.078,1.047,1.047,0,0,1,1.177.392.917.917,0,0,1,.245.613c0,.221.025.441.025.662v2.77c0,.123.024.564.024.564a1.361,1.361,0,0,0,1.5,1.324,2.469,2.469,0,0,0,.931-.221,1.192,1.192,0,0,0,.613-1.177v-.735C502.209,331.485,502.234,330.873,502.234,330.284Z" transform="translate(-489.047 -320.823)" fill="#ff8c00"/>
      <path id="Path_771" data-name="Path 771" d="M588.734,330.284c0-.343,0-.686-.025-1v-.27a4.754,4.754,0,0,0-.049-.588,3.949,3.949,0,0,0-.441-1.446,3.31,3.31,0,0,0-1.814-1.691,2.73,2.73,0,0,0-2.059.172,4.2,4.2,0,0,0-.564.319c-.147.1-.319.27-.49.245-.025,0-.1-.2-.123-.221-.025-.049-.073-.123-.1-.172a1.044,1.044,0,0,0-.294-.27,1.65,1.65,0,0,0-1.74-.049,1.305,1.305,0,0,0-.539.662,1.583,1.583,0,0,0-.1.49v6.471a1.36,1.36,0,0,0,1.471,1.348,2.466,2.466,0,0,0,.931-.221,1.174,1.174,0,0,0,.588-1.177v-3.064c0-.245,0-.515.025-.76a1.189,1.189,0,0,1,.809-1.078,1.047,1.047,0,0,1,1.176.392.916.916,0,0,1,.245.613c0,.221.025.441.025.662v2.77c0,.123.024.564.024.564a1.361,1.361,0,0,0,1.5,1.324,2.47,2.47,0,0,0,.932-.221,1.192,1.192,0,0,0,.613-1.177v-.735C588.734,331.485,588.734,330.873,588.734,330.284Z" transform="translate(-554.345 -320.823)" fill="#ff8c00"/>
      <path id="Path_772" data-name="Path 772" d="M541.613,308.424c-.2.025-.907.049-1.1.049a4.762,4.762,0,0,1-.588.049l-.637.074a4.285,4.285,0,0,0-1.985.882,3.631,3.631,0,0,0-.588.637,3.7,3.7,0,0,0-.662,1.814c-.024.392-.049.784-.049,1.176v7.059a1.439,1.439,0,0,0,1.4,1.446h.2a1.423,1.423,0,0,0,1.4-1.446v-3.824c0-.1.025-.172.123-.172.245,0,.686.025.931.025a1.1,1.1,0,0,0,.76-.294,1.306,1.306,0,0,0,.27-1.569,1.235,1.235,0,0,0-.956-.662c-.245-.049-.49,0-.735-.025a.388.388,0,0,1-.441-.392c0-.294.025-.564.049-.858a.8.8,0,0,1,.1-.343,1.6,1.6,0,0,1,1.152-.735,13.81,13.81,0,0,1,1.422-.074.185.185,0,0,0,.1-.025V308.4A.311.311,0,0,1,541.613,308.424Z" transform="translate(-520.828 -308.228)" fill="#ff8c00"/>
      <g id="Group_636" data-name="Group 636" transform="translate(21.52)">
        <path id="Path_773" data-name="Path 773" d="M564.89,309.2a1.5,1.5,0,1,1-1.5-1.5A1.5,1.5,0,0,1,564.89,309.2Z" transform="translate(-561.9 -307.7)" fill="#ff8c00"/>
        <path id="Path_774" data-name="Path 774" d="M564.917,333.749a1.318,1.318,0,0,1-1.324,1.324h-.27A1.318,1.318,0,0,1,562,333.749v-6.226a1.318,1.318,0,0,1,1.324-1.324h.27a1.318,1.318,0,0,1,1.324,1.324Z" transform="translate(-561.975 -321.666)" fill="#ff8c00"/>
      </g>
      <g id="Group_637" data-name="Group 637" transform="translate(0)">
        <path id="Path_775" data-name="Path 775" d="M477.09,309.2a1.5,1.5,0,1,1-1.5-1.5A1.486,1.486,0,0,1,477.09,309.2Z" transform="translate(-474.1 -307.7)" fill="#ff8c00"/>
        <path id="Path_776" data-name="Path 776" d="M477.217,333.749a1.318,1.318,0,0,1-1.324,1.324h-.27a1.318,1.318,0,0,1-1.324-1.324v-6.226a1.318,1.318,0,0,1,1.324-1.324h.27a1.318,1.318,0,0,1,1.324,1.324Z" transform="translate(-474.251 -321.666)" fill="#ff8c00"/>
      </g>
      <g id="Group_638" data-name="Group 638" transform="translate(36.178)">
        <path id="Path_777" data-name="Path 777" d="M624.69,309.2a1.5,1.5,0,1,1-1.5-1.5A1.5,1.5,0,0,1,624.69,309.2Z" transform="translate(-621.7 -307.7)" fill="#ff8c00"/>
        <path id="Path_778" data-name="Path 778" d="M624.717,333.749a1.318,1.318,0,0,1-1.324,1.324h-.27a1.318,1.318,0,0,1-1.324-1.324v-6.226a1.318,1.318,0,0,1,1.324-1.324h.27a1.318,1.318,0,0,1,1.324,1.324Z" transform="translate(-621.776 -321.666)" fill="#ff8c00"/>
      </g>
      <g id="Group_639" data-name="Group 639" transform="translate(48.164)">
        <path id="Path_779" data-name="Path 779" d="M673.59,309.2a1.5,1.5,0,1,1-1.5-1.5A1.486,1.486,0,0,1,673.59,309.2Z" transform="translate(-670.6 -307.7)" fill="#ff8c00"/>
        <path id="Path_780" data-name="Path 780" d="M673.617,333.749a1.318,1.318,0,0,1-1.324,1.324h-.27a1.318,1.318,0,0,1-1.323-1.324v-6.226a1.318,1.318,0,0,1,1.323-1.324h.27a1.318,1.318,0,0,1,1.324,1.324Z" transform="translate(-670.675 -321.666)" fill="#ff8c00"/>
      </g>
    </g>
  </g>
</svg>
