<svg xmlns="http://www.w3.org/2000/svg" width="15" height="15" viewBox="0 0 15 15">
  <path id="Icon_feather-message-circle" data-name="Icon feather-message-circle" d="M15.75,8.625a6.285,6.285,0,0,1-.675,2.85A6.375,6.375,0,0,1,9.375,15a6.285,6.285,0,0,1-2.85-.675L2.25,15.75l1.425-4.275A6.285,6.285,0,0,1,3,8.625a6.375,6.375,0,0,1,3.525-5.7,6.285,6.285,0,0,1,2.85-.675H9.75a6.36,6.36,0,0,1,6,6Z" transform="translate(-1.5 -1.5)" fill="none" stroke="#5f6368" stroke-linecap="round" stroke-linejoin="round" stroke-width="1.5"/>
</svg>
