<svg xmlns="http://www.w3.org/2000/svg" width="87.453" height="43.333" viewBox="0 0 87.453 43.333">
  <g id="Group_739" data-name="Group 739" transform="translate(-678.374 -478)">
    <path id="Path_650" data-name="Path 650" d="M.473,0,0,2.141V64.3l.473.63L22.13,47.884Z" transform="translate(678.374 500.143) rotate(-90)" fill="#1e90ff"/>
    <path id="Path_651" data-name="Path 651" d="M21.663,0,0,47.866,21.663,64.917Z" transform="translate(678.374 521.333) rotate(-90)" fill="#67b4ff"/>
    <path id="Path_652" data-name="Path 652" d="M.268,12.8,0,13.13V29.74l.268.777L21.938,0Z" transform="translate(735.307 499.938) rotate(-90)" fill="#005fbb"/>
    <path id="Path_653" data-name="Path 653" d="M21.663,30.517V12.8L0,0Z" transform="translate(735.31 521.333) rotate(-90)" fill="#67b4ff"/>
    <path id="Path_654" data-name="Path 654" d="M0,30.284,21.657,13.167,0,0Z" transform="translate(713.026 499.67) rotate(-90)" fill="#005fbb"/>
    <path id="Path_655" data-name="Path 655" d="M0,13.163,21.663,30.284V0Z" transform="translate(713.026 521.333) rotate(-90)" fill="#00498f"/>
  </g>
</svg>
