<svg xmlns="http://www.w3.org/2000/svg" xmlns:xlink="http://www.w3.org/1999/xlink" width="16" height="16" viewBox="0 0 16 16"><defs><clipPath id="a"><rect width="16" height="16" transform="translate(410 267)" fill="red"/></clipPath></defs><g transform="translate(-410 -267)" clip-path="url(#a)"><g transform="translate(410 267)"><path d="M11.342,0H2.154a.939.939,0,0,0-.937.938V4.125a.312.312,0,0,0,.625,0V.938A.313.313,0,0,1,2.154.625h9.188a.313.313,0,0,1,.313.313V12.563a.313.313,0,0,1-.312.313H2.154a.313.313,0,0,1-.312-.312V6.76a.313.313,0,0,0-.625,0v5.8a.939.939,0,0,0,.938.938h9.188a.939.939,0,0,0,.938-.937V.938A.939.939,0,0,0,11.342,0Z"/><path d="M1.75,5.3a.313.313,0,1,0,.092.221A.314.314,0,0,0,1.75,5.3Z"/><path d="M3,14.218a.312.312,0,1,0,.092.221A.314.314,0,0,0,3,14.218Z"/><path d="M13.219,1.252a.313.313,0,0,0-.312.313v12.25a.313.313,0,0,1-.312.313H4.031a.313.313,0,0,0,0,.625h8.563a.939.939,0,0,0,.938-.937V1.564A.313.313,0,0,0,13.219,1.252Z"/><path d="M14.471,2.5a.313.313,0,0,0-.312.313v12.25a.313.313,0,0,1-.312.313H4.033a.313.313,0,0,0,0,.625h9.812a.939.939,0,0,0,.938-.937V2.813A.313.313,0,0,0,14.471,2.5Z"/><path d="M6.279,2.313h-3a.313.313,0,0,0-.312.313v3a.313.313,0,0,0,.313.313h3a.313.313,0,0,0,.313-.312v-3A.313.313,0,0,0,6.279,2.313Zm-.312,3H3.592V2.938H5.967Z"/><path d="M5.274,7.356a.313.313,0,0,0-.442,0L4,8.187,3.615,7.8a.313.313,0,1,0-.442.442l.607.607a.313.313,0,0,0,.442,0L5.274,7.8A.313.313,0,0,0,5.274,7.356Z"/><path d="M10.394,7.781H6.748a.313.313,0,0,0,0,.625h3.646a.313.313,0,1,0,0-.625Z"/><path d="M10.217,2.313H8.029a.313.313,0,0,0,0,.625h2.188a.313.313,0,0,0,0-.625Z"/><path d="M10.217,3.813H8.029a.313.313,0,0,0,0,.625h2.188a.313.313,0,0,0,0-.625Z"/><path d="M10.217,5.313H8.029a.313.313,0,0,0,0,.625h2.188a.313.313,0,0,0,0-.625Z"/><path d="M5.274,9.743a.313.313,0,0,0-.442,0L4,10.574l-.386-.386a.313.313,0,0,0-.442.442l.607.607a.313.313,0,0,0,.442,0l1.052-1.052A.313.313,0,0,0,5.274,9.743Z"/><path d="M10.394,10.156H6.748a.313.313,0,0,0,0,.625h3.646a.313.313,0,1,0,0-.625Z"/></g></g></svg>