<svg xmlns="http://www.w3.org/2000/svg" xmlns:xlink="http://www.w3.org/1999/xlink" width="16" height="16" viewBox="0 0 16 16"><defs><clipPath id="a"><rect width="16" height="16" transform="translate(410 347)" fill="red"/></clipPath></defs><g transform="translate(-410 -347)" clip-path="url(#a)"><g transform="translate(411.188 347)"><path d="M13.609,4.341V4.329c-.007-.154-.012-.316-.014-.5A1.7,1.7,0,0,0,12,2.17,6.58,6.58,0,0,1,7.519.283l-.01-.01a1.024,1.024,0,0,0-1.392,0l-.01.01A6.581,6.581,0,0,1,1.628,2.17a1.7,1.7,0,0,0-1.6,1.661c0,.18-.007.342-.014.5v.029a17.34,17.34,0,0,0,.7,6.329A8.057,8.057,0,0,0,2.65,13.7a10.112,10.112,0,0,0,3.783,2.237,1.172,1.172,0,0,0,.155.042,1.145,1.145,0,0,0,.45,0,1.175,1.175,0,0,0,.156-.042A10.118,10.118,0,0,0,10.972,13.7a8.069,8.069,0,0,0,1.933-3.012A17.366,17.366,0,0,0,13.609,4.341ZM12.024,10.36a7.763,7.763,0,0,1-5.141,4.689l-.03.008a.211.211,0,0,1-.083,0l-.03-.008A7.754,7.754,0,0,1,1.6,10.363,16.36,16.36,0,0,1,.955,4.376v-.01c.007-.163.012-.333.015-.52a.754.754,0,0,1,.71-.738,8.237,8.237,0,0,0,2.8-.615A7.315,7.315,0,0,0,6.755.962a.087.087,0,0,1,.116,0A7.318,7.318,0,0,0,9.149,2.493a8.238,8.238,0,0,0,2.8.615.754.754,0,0,1,.71.738c0,.188.008.358.015.52A16.368,16.368,0,0,1,12.024,10.36Zm0,0"/><path d="M6.812,4.013A3.987,3.987,0,1,0,10.8,8,3.992,3.992,0,0,0,6.812,4.013Zm0,7.036A3.049,3.049,0,1,1,9.861,8,3.052,3.052,0,0,1,6.812,11.049Zm0,0"/><path d="M7.958,6.762,6.106,8.614l-.5-.5a.469.469,0,0,0-.664.664l.835.835a.469.469,0,0,0,.664,0L8.622,7.426a.469.469,0,1,0-.664-.664Zm0,0"/></g></g></svg>