<svg xmlns="http://www.w3.org/2000/svg" xmlns:xlink="http://www.w3.org/1999/xlink" width="16" height="16" viewBox="0 0 16 16"><defs><clipPath id="a"><rect width="16" height="16" transform="translate(410 307)" fill="red"/></clipPath></defs><g transform="translate(-410 -307)" clip-path="url(#a)"><g transform="translate(410 307)"><path d="M14.324,5.026a1.949,1.949,0,0,0,.127-.693,2,2,0,0,0-3.132-1.644A3.644,3.644,0,0,0,7.784,0,3.682,3.682,0,0,0,4.476,2.092,2.665,2.665,0,0,0,1.117,4.667a2.62,2.62,0,0,0,.052.521A2,2,0,0,0,2,9H3.083V8.333H2a1.33,1.33,0,0,1-.345-2.615L2,5.627l-.111-.335A2,2,0,0,1,4.537,2.815l.318.129.12-.322a3,3,0,0,1,5.795.769l.081.887.521-.722A1.32,1.32,0,0,1,12.451,3a1.335,1.335,0,0,1,1.333,1.333,1.316,1.316,0,0,1-.274.8l-.4.534H14a1.333,1.333,0,1,1,0,2.667H12.585V9H14a2,2,0,0,0,.324-3.974Z"/><path d="M6.818,10.259A1.479,1.479,0,1,0,8.3,11.738,1.481,1.481,0,0,0,6.818,10.259Zm0,2.292a.813.813,0,1,1,.813-.813A.814.814,0,0,1,6.818,12.551Z"/><path d="M6.818,8.854A2.885,2.885,0,1,0,9.7,11.738,2.888,2.888,0,0,0,6.818,8.854Zm0,5.1a2.218,2.218,0,1,1,2.218-2.218A2.221,2.221,0,0,1,6.818,13.957Z"/><path d="M6.818,7.477a4.262,4.262,0,1,0,4.262,4.262A4.267,4.267,0,0,0,6.818,7.477Zm0,7.857a3.6,3.6,0,1,1,3.6-3.6A3.6,3.6,0,0,1,6.818,15.333Z"/><rect width="4.801" height="0.667" transform="translate(6.582 11.501) rotate(-45)"/><path d="M12.871,7.133a.334.334,0,0,0-.219-.24l-.742-.247L11.662,5.9a.333.333,0,0,0-.552-.13L9.647,7.238a.334.334,0,0,0-.081.341l.3.9a.333.333,0,0,0,.211.211l.9.3a.334.334,0,0,0,.341-.081l1.464-1.464A.334.334,0,0,0,12.871,7.133ZM10.992,8.293l-.546-.182-.182-.547.937-.937.13.389a.333.333,0,0,0,.211.211l.388.129Z"/></g></g></svg>