<svg xmlns="http://www.w3.org/2000/svg" xmlns:xlink="http://www.w3.org/1999/xlink" width="16" height="16" viewBox="0 0 16 16"><defs><clipPath id="a"><rect width="16" height="16" transform="translate(410 427)" fill="red"/></clipPath></defs><g transform="translate(-410 -427)" clip-path="url(#a)"><path d="M12.25,16H3.75A3.754,3.754,0,0,1,0,12.25V6.969a3.754,3.754,0,0,1,3.75-3.75h2.5a.625.625,0,0,1,0,1.25H3.75a2.5,2.5,0,0,0-2.5,2.5V12.25a2.5,2.5,0,0,0,2.5,2.5h8.5a2.5,2.5,0,0,0,2.5-2.5V8.656a.625.625,0,0,1,1.25,0V12.25A3.754,3.754,0,0,1,12.25,16Zm-1.975-5.144,1.042-.8a.625.625,0,1,0-.759-.993l-1.042.8a2.506,2.506,0,0,1-3.033,0L3.5,7.6a.625.625,0,1,0-.757.995l2.979,2.265a3.759,3.759,0,0,0,4.549,0ZM16,3.938a3.938,3.938,0,1,0-3.937,3.938A3.942,3.942,0,0,0,16,3.938Zm-1.25,0A2.688,2.688,0,1,1,12.063,1.25,2.691,2.691,0,0,1,14.75,3.938Zm-2.062.969V2.969a.625.625,0,0,0-.625-.625h-.625a.625.625,0,0,0,0,1.25V4.906a.625.625,0,0,0,1.25,0Z" transform="translate(410 427)"/></g></svg>