 <svg xmlns="http://www.w3.org/2000/svg"
                                            xmlns:xlink="http://www.w3.org/1999/xlink" width="16" height="16"
                                            viewBox="0 0 16 16">
                                            <path
                                                d="M16,8a8,8,0,1,0-8,8A8,8,0,0,0,16,8ZM8,.938a7.063,7.063,0,0,1,5.853,11.016,8,8,0,0,0-11.706,0A7.063,7.063,0,0,1,8,.938ZM2.732,12.7a7.061,7.061,0,0,1,10.536,0A7.056,7.056,0,0,1,2.732,12.7Zm0,0"
                                                fill="#1e90ff" />
                                            <path
                                                d="M8,8.469a2.816,2.816,0,0,0,2.813-2.812V4.719a2.813,2.813,0,0,0-5.625,0v.938A2.816,2.816,0,0,0,8,8.469ZM6.125,4.719a1.875,1.875,0,0,1,3.75,0v.938a1.875,1.875,0,0,1-3.75,0Zm0,0"
                                                fill="#1e90ff" />
                                        </svg>