<svg xmlns="http://www.w3.org/2000/svg" xmlns:xlink="http://www.w3.org/1999/xlink" width="16" height="16" viewBox="0 0 16 16"><defs><clipPath id="a"><rect width="16" height="16" transform="translate(410 387)" fill="red"/></clipPath></defs><g transform="translate(-410 -387)" clip-path="url(#a)"><g transform="translate(410 387)"><path d="M15.062,8.55V7.063a.469.469,0,0,0-.469-.469,14.141,14.141,0,0,0-2.724.249,4.232,4.232,0,0,0-1.76-1.019,3.281,3.281,0,1,0-4.22,0A4.233,4.233,0,0,0,4.13,6.842a14.143,14.143,0,0,0-2.724-.249.469.469,0,0,0-.469.469V8.55A1.408,1.408,0,0,0,0,9.875v.937a1.408,1.408,0,0,0,.937,1.326v1.487a.469.469,0,0,0,.469.469A10.908,10.908,0,0,1,7.74,15.921a.47.47,0,0,0,.52,0,10.908,10.908,0,0,1,6.334-1.828.469.469,0,0,0,.469-.469V12.138A1.408,1.408,0,0,0,16,10.813V9.875A1.409,1.409,0,0,0,15.062,8.55ZM5.656,3.313A2.344,2.344,0,1,1,8,5.656,2.362,2.362,0,0,1,5.656,3.313Zm-4.25,7.969a.469.469,0,0,1-.469-.469V9.875a.469.469,0,0,1,.937,0v.937A.469.469,0,0,1,1.406,11.281ZM7.531,14.69a11.728,11.728,0,0,0-5.656-1.527V12.138a1.408,1.408,0,0,0,.937-1.326V9.875A1.408,1.408,0,0,0,1.875,8.55V7.538A10.6,10.6,0,0,1,7.531,9.192ZM8,8.38A11.14,11.14,0,0,0,5.273,7.126a3.288,3.288,0,0,1,1.79-.532H8.937a3.288,3.288,0,0,1,1.79.532A11.14,11.14,0,0,0,8,8.38Zm6.125,4.784A11.729,11.729,0,0,0,8.469,14.69v-5.5a10.594,10.594,0,0,1,5.656-1.654V8.55a1.408,1.408,0,0,0-.937,1.326v.937a1.408,1.408,0,0,0,.937,1.326Zm.937-2.35a.469.469,0,0,1-.937,0V9.875a.469.469,0,0,1,.937,0Z"/></g></g></svg>