<svg xmlns="http://www.w3.org/2000/svg" width="189.671" height="247.418" viewBox="0 0 189.671 247.418"><g transform="translate(-106.327 -69.38)"><path d="M694.429,605.571c0,19,11.922,34.38,26.654,34.38" transform="translate(-459.465 -363.188)" fill="#3f3d56"/><path d="M747.769,639.565c0-19.216,13.3-34.766,29.745-34.766" transform="translate(-486.151 -362.801)" fill="#ff8c00"/><path d="M713.755,609.018c0,18.051,7.6,32.658,17,32.658" transform="translate(-469.134 -364.912)" fill="#ff8c00"/><path d="M747.769,629.9c0-24.554,15.377-44.424,34.38-44.424" transform="translate(-486.151 -353.132)" fill="#3f3d56"/><path d="M736.548,672.813s3.78-.116,4.919-.928,5.815-1.78,6.1-.479,5.681,6.471,1.413,6.505-9.916-.665-11.053-1.357S736.548,672.813,736.548,672.813Z" transform="translate(-480.537 -395.807)" fill="#a8a8a8"/><path d="M749.053,679.5c-4.268.034-9.916-.665-11.053-1.357-.866-.527-1.211-2.42-1.327-3.293l-.126,0s.24,3.049,1.376,3.741,6.786,1.392,11.053,1.357c1.232-.01,1.657-.448,1.634-1.1C750.44,679.247,749.97,679.491,749.053,679.5Z" transform="translate(-480.537 -397.848)" opacity="0.2"/><ellipse cx="65.96" cy="10.494" rx="65.96" ry="10.494" transform="translate(106.327 295.81)" opacity="0.1"/><rect width="6.496" height="14.991" transform="translate(194.774 282.818)" fill="#ffb9b9"/><rect width="24.985" height="44.973" transform="translate(176.785 80.441)" fill="#ff6584"/><path d="M519.9,399.312l.865,6.918-22.772,6.918-2.883-12.683Z" transform="translate(-299.782 -233.757)" fill="#ffb9b9"/><path d="M589.148,316.461s-.577,5.189-1.73,5.189-5.189,2.018-5.189,2.018l-1.153,5.477,8.071,4.9,13.26-1.441,3.747-5.765-3.747-3.747s-3.171-6.918-2.018-8.359S589.148,316.461,589.148,316.461Z" transform="translate(-402.755 -217.493)" fill="#ffb9b9"/><path d="M589.148,316.461s-.577,5.189-1.73,5.189-5.189,2.018-5.189,2.018l-1.153,5.477,8.071,4.9,13.26-1.441,3.747-5.765-3.747-3.747s-3.171-6.918-2.018-8.359S589.148,316.461,589.148,316.461Z" transform="translate(-402.755 -217.493)" opacity="0.1"/><path d="M518.916,677.948s-2.594,17.3-5.765,18.448,12.107,3.171,12.107,3.171l1.153-6.342s.288-11.53,1.441-13.26S518.916,677.948,518.916,677.948Z" transform="translate(-368.555 -399.398)" fill="#ffb9b9"/><path d="M552.871,467.567s41.8-7.495,42.085-8.936,8.648,10.954,3.459,35.167-18.16,81.287-18.16,81.287-13.26,4.036-12.971.865,4.612-58.227,4.612-58.227l-2.882-23.349-4.9,2.883-20.466,40.355L533.27,572.491s-13.26,2.306-11.242-2.594,8.648-42.95,8.648-42.95l18.16-53.615S548.259,467.567,552.871,467.567Z" transform="translate(-373.108 -289.617)" fill="#2f2e41"/><circle cx="12.107" cy="12.107" r="12.107" transform="translate(178.178 78.647)" fill="#ffb9b9"/><path d="M605.584,332.413s-5.765,5.477-19.313,4.036,3.747,30.843,3.747,30.843l5.477,32.573s24.213-2.883,25.078-8.359S605.584,332.413,605.584,332.413Z" transform="translate(-402.76 -226.527)" fill="#f2f2f2"/><path d="M585.377,357.288s-6.918-3.459-9.512-12.971-4.9-19.313-6.342-19.025c-1.217.243-12.5,4.6-16.161,7.508-.674.537-1.089,1.024-1.134,1.428-.288,2.594,10.377,28.537,10.377,28.537s8.359,18.736,4.9,24.79-3.747,13.836,2.594,13.26,27.384-1.73,24.5-17.872c0,0,5.477,11.242,20.754,3.171,0,0,9.224-1.441,8.936-4.612s-14.7-30.555-14.7-30.555-2.306-12.107,2.018-16.719l-9.8-11.53s-2.306-3.459-4.612-1.729a59.522,59.522,0,0,1-8.359,4.9c-.865.288-1.433-1.036-1.433-1.036a25.061,25.061,0,0,0-2.314,13.431C585.954,345.758,585.377,357.288,585.377,357.288Z" transform="translate(-388.319 -220.559)" fill="#2f2e41"/><path d="M501.5,701.6s-.644-2.018-4.357,0c0,0,1.187-6.342-2.849-6.342s-5.477,7.494-5.477,7.494-1.153,4.9-8.936,6.918-1.729,8.936,3.747,8.936,12.683-4.324,12.683-4.324,14.989.288,15.277-2.594-1.441-11.53-2.594-11.53-3.459,4.035-3.459,4.035Z" transform="translate(-350.27 -408.057)" fill="#2f2e41"/><path d="M615.444,696.5s-4.036-4.324-6.342,2.883-4.035,10.089-2.594,11.242,2.594.576,2.018,2.882,1.729,7.206,6.918,7.206,6.63-3.747,6.342-6.342-2.594-5.765-2.594-5.765l-2.306-8.071Z" transform="translate(-415.214 -408.039)" fill="#2f2e41"/><path d="M645.867,292.033l-15.277,5.189s-13.836,8.071-7.783,9.8,11.242-5.189,11.242-5.189l13.26-3.459Z" transform="translate(-422.866 -206.324)" fill="#ffb9b9"/><path d="M577.749,262.008a22.353,22.353,0,0,0-4.631,4.662c-2.789,3.489-5.523,7.657-4.835,12.071.261,1.677,1.006,3.237,1.426,4.881a25.716,25.716,0,0,1,.488,6.83,9.226,9.226,0,0,1-.357,2.88,18.984,18.984,0,0,1-1.42,2.626c-1.388,2.586-1.422,5.658-1.424,8.593a7.329,7.329,0,0,0,.4,2.914,11.585,11.585,0,0,0,1.67,2.336,10.077,10.077,0,0,1,1.553,9.129,3.954,3.954,0,0,0,3.593-2.265,5.009,5.009,0,0,1-1.281,4.074c3.3-.981,6.837-2.634,8.041-5.859a12.414,12.414,0,0,0,.592-3.386c.641-8.089,1.007-16.48-1.894-24.058-.928-2.424-2.191-4.771-2.5-7.349s.64-5.556,3.008-6.62a2.73,2.73,0,0,0,.825,1.737c.527.391,1.5.146,1.511-.51l1.144,1.592a2.794,2.794,0,0,0,1.086-.948l.784.96,1.668-1.213,1.448,1.562a3.081,3.081,0,0,0,1.271-1.384c.311.465.7.977,1.254,1.027,1.214.11,1.465-1.817,2.526-2.418a1.79,1.79,0,0,1,2.234.677,3.647,3.647,0,0,1,.45,2.47c-.439,3.964-3.821,7.58-2.818,11.44.564,2.17,2.463,3.911,2.606,6.149.114,1.788-.937,3.48-.921,5.272.019,2.1,1.47,3.884,2.886,5.434q3.781,4.14,7.96,7.891l-.861-1.506a2.794,2.794,0,0,1,2.192.806,3.79,3.79,0,0,0-.55-2.58c-2.317-4.866-4.188-10.048-4.468-15.431-.388-7.482,2.3-15.081.6-22.377a19.316,19.316,0,0,0-6.51-10.408,7.765,7.765,0,0,0-4.815-2.219,36.343,36.343,0,0,0-6.858.054A15.7,15.7,0,0,0,577.749,262.008Z" transform="translate(-395.701 -189.976)" fill="#ff6584"/><path d="M646.838,301.631a23.309,23.309,0,0,0,4.612,0,12,12,0,0,0,3.459-1.73l10.954-8.071-9.512,1.441s1.729-13.26,1.153-13.548,27.961-5.765,27.384,3.171-16.719,26.519-25.943,29.978l-6.053.865Z" transform="translate(-435.655 -199.204)" fill="#2f2e41"/><rect width="135.918" height="31.981" transform="translate(106.327 204.621)" fill="#1e90ff"/><rect width="100.939" height="16.99" transform="translate(123.567 211.866)" fill="rgba(112,112,112,0.4)"/><path d="M504.991,554.623c-.04-.436-1.967-.63-4.611-.521,1.532-2.157,2.419-3.879,2.076-4.15-.324-.256-1.649.85-3.263,2.647-.152-2.41-.506-4.1-.919-4.1-.45,0-.831,2.01-.956,4.773-2.245-1.615-4.058-2.562-4.337-2.209-.266.337.947,1.762,2.876,3.466-2.546.378-4.34.911-4.3,1.339s1.967.63,4.611.521c-1.532,2.157-2.419,3.879-2.076,4.15.324.256,1.649-.85,3.263-2.647.152,2.41.507,4.1.919,4.1.45,0,.831-2.01.956-4.773,2.245,1.615,4.058,2.562,4.337,2.209.266-.337-.947-1.762-2.876-3.466C503.237,555.584,505.031,555.051,504.991,554.623Z" transform="translate(-357.968 -334.635)" fill="#fff"/><path d="M538.991,554.623c-.04-.436-1.967-.63-4.611-.521,1.532-2.157,2.42-3.879,2.076-4.15-.324-.256-1.649.85-3.263,2.647-.152-2.41-.507-4.1-.919-4.1-.45,0-.831,2.01-.956,4.773-2.245-1.615-4.058-2.562-4.337-2.209-.266.337.947,1.762,2.876,3.466-2.546.378-4.34.911-4.3,1.339s1.967.63,4.611.521c-1.532,2.157-2.42,3.879-2.076,4.15.324.256,1.649-.85,3.263-2.647.152,2.41.507,4.1.919,4.1.45,0,.831-2.01.956-4.773,2.245,1.615,4.058,2.562,4.337,2.209.266-.337-.947-1.762-2.876-3.466C537.237,555.584,539.031,555.051,538.991,554.623Z" transform="translate(-374.978 -334.635)" fill="#fff"/><path d="M572.991,554.623c-.041-.436-1.967-.63-4.611-.521,1.532-2.157,2.419-3.879,2.076-4.15-.324-.256-1.649.85-3.263,2.647-.152-2.41-.506-4.1-.919-4.1-.45,0-.831,2.01-.956,4.773-2.245-1.615-4.058-2.562-4.337-2.209-.266.337.947,1.762,2.876,3.466-2.546.378-4.34.911-4.3,1.339s1.967.63,4.611.521c-1.532,2.157-2.419,3.879-2.076,4.15.324.256,1.649-.85,3.263-2.647.152,2.41.507,4.1.919,4.1.45,0,.831-2.01.956-4.773,2.245,1.615,4.058,2.562,4.337,2.209.266-.337-.947-1.762-2.876-3.466C571.237,555.584,573.031,555.051,572.991,554.623Z" transform="translate(-391.988 -334.635)" fill="#fff"/><path d="M606.991,554.623c-.04-.436-1.967-.63-4.611-.521,1.532-2.157,2.419-3.879,2.076-4.15-.324-.256-1.649.85-3.263,2.647-.152-2.41-.506-4.1-.919-4.1-.45,0-.831,2.01-.956,4.773-2.245-1.615-4.058-2.562-4.338-2.209-.266.337.947,1.762,2.876,3.466-2.546.378-4.34.911-4.3,1.339s1.967.63,4.611.521c-1.532,2.157-2.419,3.879-2.076,4.15.324.256,1.649-.85,3.263-2.647.152,2.41.507,4.1.919,4.1.45,0,.831-2.01.956-4.773,2.245,1.615,4.058,2.562,4.337,2.209.267-.337-.947-1.762-2.876-3.466C605.237,555.584,607.031,555.051,606.991,554.623Z" transform="translate(-408.998 -334.635)" fill="#fff"/><path d="M640.991,554.623c-.04-.436-1.967-.63-4.611-.521,1.532-2.157,2.419-3.879,2.076-4.15-.324-.256-1.649.85-3.263,2.647-.152-2.41-.506-4.1-.919-4.1-.45,0-.831,2.01-.956,4.773-2.245-1.615-4.058-2.562-4.337-2.209-.266.337.947,1.762,2.876,3.466-2.546.378-4.34.911-4.3,1.339s1.967.63,4.611.521c-1.532,2.157-2.419,3.879-2.076,4.15.324.256,1.649-.85,3.263-2.647.152,2.41.507,4.1.919,4.1.45,0,.831-2.01.956-4.773,2.245,1.615,4.058,2.562,4.337,2.209.267-.337-.947-1.762-2.876-3.466C639.237,555.584,641.031,555.051,640.991,554.623Z" transform="translate(-426.009 -334.635)" fill="#fff"/><path d="M548.648,500.853s-1.441,19.025,5.477,19.889.576-21.619.576-21.619Z" transform="translate(-386.468 -309.932)" fill="#ffb9b9"/><path d="M549.5,346.835l-2.018.576s-8.359,66.875-2.883,79.846c0,0,5.765-3.171,8.648-2.594l4.612-54.48Z" transform="translate(-383.576 -233.742)" fill="#2f2e41"/></g></svg>