<svg xmlns="http://www.w3.org/2000/svg" width="23.722" height="23.722" viewBox="0 0 23.722 23.722"><path d="M15.717,11.4a4.313,4.313,0,1,0,4.313,4.313A4.312,4.312,0,0,0,15.717,11.4Zm9.64,3.235A9.7,9.7,0,0,0,16.8,6.077V3.856H14.639V6.077a9.7,9.7,0,0,0-8.561,8.561H3.856V16.8H6.077a9.7,9.7,0,0,0,8.561,8.561v2.221H16.8V25.357A9.7,9.7,0,0,0,25.357,16.8h2.221V14.639H25.357Zm-9.64,8.626a7.548,7.548,0,1,1,7.548-7.548A7.549,7.549,0,0,1,15.717,23.265Z" transform="translate(-3.856 -3.856)" fill="#ff8c00"/></svg>