<svg xmlns="http://www.w3.org/2000/svg" xmlns:xlink="http://www.w3.org/1999/xlink" width="301.426" height="199.027" viewBox="0 0 301.426 199.027"><defs><linearGradient id="a" x1="0.5" y1="1" x2="0.5" gradientUnits="objectBoundingBox"><stop offset="0" stop-color="gray" stop-opacity="0.251"/><stop offset="0.54" stop-color="gray" stop-opacity="0.122"/><stop offset="1" stop-color="gray" stop-opacity="0.102"/></linearGradient></defs><g transform="translate(-20.898 -0.003)"><path d="M396.515,194.983c-7.468,15.406-22.633,25.708-38.349,32.5a145.782,145.782,0,0,1-67.436,11.243q-6.041-.4-12.045-1.285a151.911,151.911,0,0,1-40.271-11.727q-5.549-2.5-10.872-5.456a139.086,139.086,0,0,1-16.995-11.114q-2.032-1.552-4.008-3.182c-.914-.753-1.819-1.523-2.738-2.271a34.548,34.548,0,0,0-6.161-4.2,22.015,22.015,0,0,0-2.063-.911c-7.05-2.682-15.179-1.67-22.518.422-5.582,1.591-11.024,3.769-16.6,5.324a55.093,55.093,0,0,1-7.564,1.608,40.254,40.254,0,0,1-16.995-1.493l-.469-.146q-1.181-.371-2.341-.812l-.469-.18q-1.124-.433-2.2-.93l-.469-.214q-1.124-.523-2.2-1.1c-.259-.135-.514-.281-.767-.419a46.006,46.006,0,0,1-11.007-8.57c-.093-.093-.18-.188-.281-.281-.447-.483-.885-.975-1.31-1.479-.157-.186-.315-.371-.469-.562q-.756-.922-1.459-1.886c-.07-.093-.138-.188-.205-.281a40.643,40.643,0,0,1-4.739-8.57c-.039-.093-.076-.188-.11-.281q-.562-1.448-1.026-2.943c-.126-.416-.247-.843-.354-1.259-.037-.124-.07-.25-.1-.374-1.552-6.108-1.729-12.458-1.729-18.771v-2.207c.045-10.212.2-20.6,1.709-30.669a1.28,1.28,0,0,1,.031-.208,95.784,95.784,0,0,1,2.055-10.069,74.275,74.275,0,0,1,3.46-10.2,94.792,94.792,0,0,1,14.1-22.445c14.1-17.3,32.584-31.825,54.222-37.261a79.794,79.794,0,0,1,68.037,14.729c5.734,4.565,10.887,9.97,17.326,13.47,5.622,3.047,12.2,4.309,18.223,1.911,4.975-1.982,8.213-2.965,13.8-2.665a115.684,115.684,0,0,1,33.832,7.086c.439.16.877.326,1.313.492,28.308,10.83,52.642,32.348,65.291,60q.5,1.1.975,2.209C402.109,157.168,404.835,177.814,396.515,194.983Z" transform="translate(-79.292 -40.04)" fill="#ff8c00" opacity="0.1"/><rect width="267.126" height="151.318" rx="12.49" transform="translate(32.962 30.289)" fill="url(#a)"/><rect width="266.308" height="148.687" rx="12.49" transform="translate(33.386 32.417)" fill="#fff"/><rect width="266.308" height="148.687" rx="12.49" transform="translate(33.386 32.417)" fill="#fff"/><rect width="266.308" height="148.687" rx="12.49" transform="translate(33.386 32.417)" fill="#fff" opacity="0.04"/><path d="M409.576,149.29h-263.6a1.352,1.352,0,0,0-1.352,1.352v5.715h266.3v-5.715a1.352,1.352,0,0,0-1.341-1.352Z" transform="translate(-111.234 -118.579)" fill="#5a5773"/><g transform="translate(36.877 32.417)"><circle cx="1.827" cy="1.827" r="1.827" fill="#fff"/><circle cx="1.827" cy="1.827" r="1.827" transform="translate(4.919)" fill="#fff"/><circle cx="1.827" cy="1.827" r="1.827" transform="translate(9.838)" fill="#fff"/></g><rect width="71.466" height="6.066" transform="translate(55.319 51.067)" fill="#ff8c00" opacity="0.2"/><rect width="222.441" height="93.31" transform="translate(55.319 75.39)" fill="#5a5773" opacity="0.1"/><path d="M580.172,275.475h-4.466V266.8a17.835,17.835,0,1,0-35.669-.241v8.915h-4.456a7.455,7.455,0,0,0-7.432,7.432v35.665A7.455,7.455,0,0,0,535.582,326h44.59a7.451,7.451,0,0,0,7.428-7.432V282.907A7.452,7.452,0,0,0,580.172,275.475ZM560.48,298.66v12.774a2.666,2.666,0,0,1-2.472,2.676,2.607,2.607,0,0,1-2.729-2.6V298.654a5.932,5.932,0,1,1,5.2,0Zm10.032-23.185H545.238v-8.915a12.632,12.632,0,1,1,25.264,0Z" transform="translate(-391.331 -165.749)" opacity="0.1"/><path d="M577.1,271.9h-4.2v-8.162a16.782,16.782,0,1,0-33.562-.226V271.9h-4.193a7.015,7.015,0,0,0-6.993,6.993v33.559a7.015,7.015,0,0,0,6.993,6.993H577.1a7.011,7.011,0,0,0,6.99-6.993V278.889A7.012,7.012,0,0,0,577.1,271.9Zm-18.529,21.816v12.02a2.509,2.509,0,0,1-2.326,2.518,2.453,2.453,0,0,1-2.568-2.45V293.706a5.582,5.582,0,1,1,4.893,0Zm9.44-21.816H544.229v-8.388a11.886,11.886,0,0,1,23.773,0Z" transform="translate(-389.33 -159.749)" fill="#1e90ff"/><rect width="22.515" height="5.315" transform="translate(255.245 66.409)" fill="#5a5773" opacity="0.1"/><path d="M890.825,493.1h0a6.536,6.536,0,0,1-.16,1.124c0-.1,0-.163-.022-.171C890.558,494.03,890.659,493.6,890.825,493.1Z" transform="translate(-647.537 -365.749)" opacity="0.1"/></g></svg>