<svg xmlns="http://www.w3.org/2000/svg" width="343.289" height="228.074" viewBox="0 0 343.289 228.074"><g transform="translate(-0.008 0.006)"><path d="M282,65.732c-22.009-.634-42.97-6.551-62.972-13.026s-39.858-13.637-61.34-17.067c-13.816-2.206-29.615-2.518-40.747,3.649-10.714,5.934-14.174,16.181-16.035,25.691-1.4,7.152-2.226,14.682,1.612,21.375,2.654,4.644,7.394,8.555,10.665,13.006,11.378,15.494,3.337,34.6-9,49.723-5.785,7.1-12.5,13.865-16.96,21.419S80.7,186.717,84.6,194.412c3.871,7.629,13.1,13.371,23.09,17.408,20.3,8.193,44.217,10.538,67.54,11.869,51.627,2.939,103.533,1.659,155.3.391,19.156-.471,38.4-.949,57.247-3.417,10.465-1.37,21.269-3.543,28.859-8.79,9.646-6.661,12.034-17.942,5.573-26.295-10.84-14.011-40.8-17.491-48.393-32.528-4.173-8.276.113-17.5,6.173-25.174,13-16.466,34.8-30.912,35.947-49.733.786-12.937-9.689-25.873-25.89-31.99-16.98-6.412-40.528-5.606-53.074,5.009C324.1,62.09,301.428,66.306,282,65.732Z" transform="translate(-82.53 -34.2)" fill="#ff8c00" opacity="0.1"/><circle cx="0.119" cy="0.119" r="0.119" transform="translate(228.534 111.355)" fill="#e6e8ec"/><path d="M407.316,244.8,320.57,301.075l56.61,102.1A3.951,3.951,0,0,0,379.7,405.1l51.292,12.512a3.954,3.954,0,0,0,4.491-2.126l25.442-52.858,27.884-37.274-66.17-78.284a11.726,11.726,0,0,0-15.325-2.272Z" transform="translate(-241.604 -213.686)" fill="#dcdfed"/><path d="M491.464,326.673l-.245.332-16.333,21.836-.3.395L463.58,363.954,441.82,409.17l-.61,1.264-3.072,6.379a3.954,3.954,0,0,1-4.5,2.126L382.347,406.42a3.944,3.944,0,0,1-2.521-1.924l-4.933-8.88-.886-1.6-35.6-64.239-.305-.547L323.22,302.4l1.8-1.168,13.63-8.84.315-.206,28.7-18.622,1.811-1.174,40.485-26.268a11.723,11.723,0,0,1,15.332,2.269l30.186,35.725,1.327,1.592,21.909,25.92.119.143,11.016,13.03,1.387,1.642Z" transform="translate(-243.375 -214.565)" opacity="0.1"/><path d="M505.125,367.161l-2.674,18.576-.806,5.606-.461,11.942-.036.932-2.4,62.395a3.957,3.957,0,0,1-4.813,3.705l-25.854-5.772-.279-.063-66.306-14.8-1.217-.272-36.452-8.14.836-56.1.027-1.874.252-16.98.279-18.742,28.7-18.622,1.811-1.174c26.623,2.73,62.03,7.981,86.016,11.726l1.327,1.592,21.893,25.92Z" transform="translate(-270.515 -260.4)" opacity="0.1"/><path d="M507.486,344.133l-3.148,21.893-2.886,20.049-.806,5.593-.461,11.942-2.435,63.327a3.957,3.957,0,0,1-4.813,3.705L466.8,464.806l-66.306-14.8L362.83,441.6l.862-57.973.252-16.98.3-19.863.3-20.43c6.23-.3,16.479.372,28.716,1.6,27.4,2.75,64.75,8.313,89.17,12.144C497.382,342.441,507.486,344.133,507.486,344.133Z" transform="translate(-269.846 -269.398)" fill="#1e90ff"/><path d="M487.238,438.3l-14.021,6.876-71.56,35.1-65.947-54.5L322.378,414.73l-1.8,1.168,14.881,26.835-.862,57.973,37.669,8.412L377.19,518a3.944,3.944,0,0,0,2.521,1.924L431,532.434a3.954,3.954,0,0,0,4.488-2.126l3.072-6.379,26.132,5.835a3.957,3.957,0,0,0,4.813-3.705l2.435-63.327,16.629-22.225.046-.561Z" transform="translate(-241.611 -328.508)" opacity="0.1"/><path d="M308.641,418.25l-5.914,101.281a3.954,3.954,0,0,0,3.088,4.09L462.886,558.5a3.954,3.954,0,0,0,4.787-3.539l9.2-112.433-87.157,42.748Z" transform="translate(-229.675 -330.86)" fill="#dcdfed"/><path d="M305.343,627.394l81.6-50.344a5.991,5.991,0,0,1,7.629,1.194l73.036,85.18c.265.305.395.086,0,0l-162.266-36.03C304.878,627.291,304.938,627.636,305.343,627.394Z" transform="translate(-231.21 -436.404)" opacity="0.1"/><path d="M306.907,630.2l80.758-48.785a6.332,6.332,0,0,1,8.054,1.267L468.1,665.915a.872.872,0,0,1-.846,1.423l-160.08-35.546a.869.869,0,0,1-.262-1.6Z" transform="translate(-232.191 -439.29)" fill="#e3e5f1"/></g></svg>