<svg xmlns="http://www.w3.org/2000/svg" width="16.568" height="20.699" viewBox="0 0 16.568 20.699">
  <g id="shopping-bag" transform="translate(0)">
    <path id="Path_18" data-name="Path 18" d="M65.363,17.893,64.178,4.546a.57.57,0,0,0-.567-.521H61.173a4.09,4.09,0,0,0-8.178,0H50.557a.567.567,0,0,0-.567.521L48.8,17.893c0,.017,0,.034,0,.051A2.95,2.95,0,0,0,51.907,20.7H62.261a2.95,2.95,0,0,0,3.107-2.756A.206.206,0,0,0,65.363,17.893Zm-8.28-16.75A2.949,2.949,0,0,1,60.03,4.026H54.138A2.949,2.949,0,0,1,57.084,1.143Zm5.177,18.413H51.907a1.824,1.824,0,0,1-1.964-1.587l1.134-12.8h1.913V6.908a.571.571,0,1,0,1.143,0V5.173h5.9V6.908a.571.571,0,1,0,1.143,0V5.173h1.913l1.139,12.8A1.826,1.826,0,0,1,62.261,19.556Z" transform="translate(-48.8)" fill="#5f6368"/>
  </g>
</svg>
