<svg xmlns="http://www.w3.org/2000/svg" width="27.482" height="18.095" viewBox="0 0 27.482 18.095">
  <g id="_003-turkey" data-name="003-turkey" transform="translate(0 -80)">
    <path id="Path_750" data-name="Path 750" d="M27.482,95.6a2.533,2.533,0,0,1-2.66,2.5H2.66A2.533,2.533,0,0,1,0,95.6V82.5A2.533,2.533,0,0,1,2.66,80H24.823a2.533,2.533,0,0,1,2.66,2.5Z" fill="#f12929"/>
    <path id="Path_754" data-name="Path 754" d="M55.19,124.288a4.227,4.227,0,0,1,4.24-4.24,4.144,4.144,0,0,1,2.158.617,5.165,5.165,0,1,0,0,7.4,4.144,4.144,0,0,1-2.158.617A4.467,4.467,0,0,1,55.19,124.288Z" transform="translate(-46.59 -35.452)" fill="#f3f4f5"/>
    <path id="Path_756" data-name="Path 756" d="M152.558,143.2l1,1.7,2-.463-1.31,1.542,1.079,1.773-1.927-.771-1.31,1.542.154-2.081-1.85-.771,2-.463Z" transform="translate(-134.492 -57.14)" fill="#f3f4f5"/>
  </g>
</svg>
