<svg xmlns="http://www.w3.org/2000/svg" width="27.482" height="18.006" viewBox="0 0 27.482 18.006">
  <g id="_004-united-states" data-name="004-united-states" transform="translate(0 -88.275)">
    <path id="Path_702" data-name="Path 702" d="M25.424,88.276H2.058A2.058,2.058,0,0,0,0,90.334v13.889a2.058,2.058,0,0,0,2.058,2.058H25.424a2.058,2.058,0,0,0,2.058-2.058V90.334A2.058,2.058,0,0,0,25.424,88.276Z" transform="translate(0 -0.001)" fill="#f5f5f5"/>
    <g id="Group_609" data-name="Group 609" transform="translate(0 88.275)">
      <path id="Path_703" data-name="Path 703" d="M2.109,89.661H29.365a2.059,2.059,0,0,0-1.945-1.385H4.054A2.059,2.059,0,0,0,2.109,89.661Z" transform="translate(-1.996 -88.276)" fill="#ff4b55"/>
      <rect id="Rectangle_100" data-name="Rectangle 100" width="27.482" height="1.385" transform="translate(0 5.54)" fill="#ff4b55"/>
      <rect id="Rectangle_101" data-name="Rectangle 101" width="27.482" height="1.385" transform="translate(0 2.77)" fill="#ff4b55"/>
      <path id="Path_704" data-name="Path 704" d="M0,244.009a.474.474,0,0,0,.474.474H27.482V243.1H0Z" transform="translate(0 -234.788)" fill="#ff4b55"/>
      <rect id="Rectangle_102" data-name="Rectangle 102" width="27.482" height="1.385" transform="translate(0 13.851)" fill="#ff4b55"/>
      <path id="Path_705" data-name="Path 705" d="M29.365,397.92H2.109a2.059,2.059,0,0,0,1.945,1.385H27.42A2.059,2.059,0,0,0,29.365,397.92Z" transform="translate(-1.996 -381.299)" fill="#ff4b55"/>
      <rect id="Rectangle_103" data-name="Rectangle 103" width="27.482" height="1.385" transform="translate(0 11.081)" fill="#ff4b55"/>
    </g>
    <path id="Path_706" data-name="Path 706" d="M.474,97.97H12.32a.474.474,0,0,0,.474-.474V88.749a.474.474,0,0,0-.474-.474H2.058A2.058,2.058,0,0,0,0,90.333V97.5A.474.474,0,0,0,.474,97.97Z" fill="#41479b"/>
    <g id="Group_610" data-name="Group 610" transform="translate(0.765 89.332)">
      <path id="Path_707" data-name="Path 707" d="M14.818,108l.1.315.332,0a.045.045,0,0,1,.026.081l-.267.2.1.316a.045.045,0,0,1-.069.05l-.27-.193-.27.193a.045.045,0,0,1-.069-.05l.1-.316-.267-.2a.045.045,0,0,1,.026-.081l.332,0,.1-.315A.045.045,0,0,1,14.818,108Z" transform="translate(-14.253 -107.968)" fill="#f5f5f5"/>
      <path id="Path_708" data-name="Path 708" d="M14.818,138.653l.1.315.332,0a.045.045,0,0,1,.026.081l-.267.2.1.316a.045.045,0,0,1-.069.05l-.27-.193-.27.193a.045.045,0,0,1-.069-.05l.1-.316-.267-.2a.045.045,0,0,1,.026-.081l.332,0,.1-.315A.045.045,0,0,1,14.818,138.653Z" transform="translate(-14.253 -136.977)" fill="#f5f5f5"/>
      <path id="Path_709" data-name="Path 709" d="M14.818,169.307l.1.315.332,0a.045.045,0,0,1,.026.081l-.267.2.1.316a.045.045,0,0,1-.069.05l-.27-.193-.27.193a.045.045,0,0,1-.069-.05l.1-.316-.267-.2a.045.045,0,0,1,.026-.081l.332,0,.1-.315A.045.045,0,0,1,14.818,169.307Z" transform="translate(-14.253 -165.986)" fill="#f5f5f5"/>
      <path id="Path_710" data-name="Path 710" d="M14.818,199.961l.1.315.332,0a.045.045,0,0,1,.026.081l-.267.2.1.316a.045.045,0,0,1-.069.05l-.27-.193-.27.193a.045.045,0,0,1-.069-.05l.1-.316-.267-.2a.045.045,0,0,1,.026-.081l.332,0,.1-.315A.045.045,0,0,1,14.818,199.961Z" transform="translate(-14.253 -194.995)" fill="#f5f5f5"/>
      <path id="Path_711" data-name="Path 711" d="M14.818,230.616l.1.315.332,0a.045.045,0,0,1,.026.081l-.267.2.1.316a.045.045,0,0,1-.069.05l-.27-.193-.27.193a.045.045,0,0,1-.069-.05l.1-.316-.267-.2a.045.045,0,0,1,.026-.081l.332,0,.1-.315A.045.045,0,0,1,14.818,230.616Z" transform="translate(-14.253 -224.004)" fill="#f5f5f5"/>
      <path id="Path_712" data-name="Path 712" d="M38.611,123.028l.1.315.332,0a.045.045,0,0,1,.026.081l-.267.2.1.316a.045.045,0,0,1-.069.05l-.27-.193-.27.193a.045.045,0,0,1-.069-.05l.1-.316-.267-.2a.045.045,0,0,1,.026-.081l.332,0,.1-.315A.045.045,0,0,1,38.611,123.028Z" transform="translate(-36.769 -122.191)" fill="#f5f5f5"/>
      <path id="Path_713" data-name="Path 713" d="M38.611,153.682l.1.315.332,0a.045.045,0,0,1,.026.081l-.267.2.1.316a.045.045,0,0,1-.069.05l-.27-.193-.27.193a.045.045,0,0,1-.069-.05l.1-.316-.267-.2A.045.045,0,0,1,38.09,154l.332,0,.1-.315A.045.045,0,0,1,38.611,153.682Z" transform="translate(-36.769 -151.2)" fill="#f5f5f5"/>
      <path id="Path_714" data-name="Path 714" d="M38.611,184.336l.1.315.332,0a.045.045,0,0,1,.026.081l-.267.2.1.316a.045.045,0,0,1-.069.05l-.27-.193-.27.193a.045.045,0,0,1-.069-.05l.1-.316-.267-.2a.045.045,0,0,1,.026-.081l.332,0,.1-.315A.045.045,0,0,1,38.611,184.336Z" transform="translate(-36.769 -180.208)" fill="#f5f5f5"/>
      <path id="Path_715" data-name="Path 715" d="M38.611,214.991l.1.315.332,0a.045.045,0,0,1,.026.081l-.267.2.1.316a.045.045,0,0,1-.069.05l-.27-.193-.27.193a.045.045,0,0,1-.069-.05l.1-.316-.267-.2a.045.045,0,0,1,.026-.081l.332,0,.1-.315A.045.045,0,0,1,38.611,214.991Z" transform="translate(-36.769 -209.217)" fill="#f5f5f5"/>
      <path id="Path_716" data-name="Path 716" d="M62.4,108l.1.315.332,0a.045.045,0,0,1,.026.081l-.267.2.1.316a.045.045,0,0,1-.069.05l-.27-.193-.27.193a.045.045,0,0,1-.069-.05l.1-.316-.267-.2a.045.045,0,0,1,.026-.081l.332,0,.1-.315A.045.045,0,0,1,62.4,108Z" transform="translate(-59.284 -107.968)" fill="#f5f5f5"/>
      <path id="Path_717" data-name="Path 717" d="M62.4,138.653l.1.315.332,0a.045.045,0,0,1,.026.081l-.267.2.1.316a.045.045,0,0,1-.069.05l-.27-.193-.27.193a.045.045,0,0,1-.069-.05l.1-.316-.267-.2a.045.045,0,0,1,.026-.081l.332,0,.1-.315A.045.045,0,0,1,62.4,138.653Z" transform="translate(-59.284 -136.977)" fill="#f5f5f5"/>
      <path id="Path_718" data-name="Path 718" d="M62.4,169.307l.1.315.332,0a.045.045,0,0,1,.026.081l-.267.2.1.316a.045.045,0,0,1-.069.05l-.27-.193-.27.193a.045.045,0,0,1-.069-.05l.1-.316-.267-.2a.045.045,0,0,1,.026-.081l.332,0,.1-.315A.045.045,0,0,1,62.4,169.307Z" transform="translate(-59.284 -165.986)" fill="#f5f5f5"/>
      <path id="Path_719" data-name="Path 719" d="M62.4,199.961l.1.315.332,0a.045.045,0,0,1,.026.081l-.267.2.1.316a.045.045,0,0,1-.069.05l-.27-.193-.27.193a.045.045,0,0,1-.069-.05l.1-.316-.267-.2a.045.045,0,0,1,.026-.081l.332,0,.1-.315A.045.045,0,0,1,62.4,199.961Z" transform="translate(-59.284 -194.994)" fill="#f5f5f5"/>
      <path id="Path_720" data-name="Path 720" d="M62.4,230.616l.1.315.332,0a.045.045,0,0,1,.026.081l-.267.2.1.316a.045.045,0,0,1-.069.05l-.27-.193-.27.193a.045.045,0,0,1-.069-.05l.1-.316-.267-.2a.045.045,0,0,1,.026-.081l.332,0,.1-.315A.045.045,0,0,1,62.4,230.616Z" transform="translate(-59.284 -224.004)" fill="#f5f5f5"/>
      <path id="Path_721" data-name="Path 721" d="M86.2,123.028l.1.315.332,0a.045.045,0,0,1,.026.081l-.267.2.1.316a.045.045,0,0,1-.069.05l-.27-.193-.27.193a.045.045,0,0,1-.069-.05l.1-.316-.267-.2a.045.045,0,0,1,.026-.081l.332,0,.1-.315A.045.045,0,0,1,86.2,123.028Z" transform="translate(-81.801 -122.191)" fill="#f5f5f5"/>
      <path id="Path_722" data-name="Path 722" d="M86.2,153.682l.1.315.332,0a.045.045,0,0,1,.026.081l-.267.2.1.316a.045.045,0,0,1-.069.05l-.27-.193-.27.193a.045.045,0,0,1-.069-.05l.1-.316-.267-.2a.045.045,0,0,1,.026-.081l.332,0,.1-.315A.045.045,0,0,1,86.2,153.682Z" transform="translate(-81.801 -151.2)" fill="#f5f5f5"/>
      <path id="Path_723" data-name="Path 723" d="M86.2,184.336l.1.315.332,0a.045.045,0,0,1,.026.081l-.267.2.1.316a.045.045,0,0,1-.069.05l-.27-.193-.27.193a.045.045,0,0,1-.069-.05l.1-.316-.267-.2a.045.045,0,0,1,.026-.081l.332,0,.1-.315A.045.045,0,0,1,86.2,184.336Z" transform="translate(-81.801 -180.208)" fill="#f5f5f5"/>
      <path id="Path_724" data-name="Path 724" d="M86.2,214.991l.1.315.332,0a.045.045,0,0,1,.026.081l-.267.2.1.316a.045.045,0,0,1-.069.05l-.27-.193-.27.193a.045.045,0,0,1-.069-.05l.1-.316-.267-.2a.045.045,0,0,1,.026-.081l.332,0,.1-.315A.045.045,0,0,1,86.2,214.991Z" transform="translate(-81.801 -209.217)" fill="#f5f5f5"/>
      <path id="Path_725" data-name="Path 725" d="M109.99,108l.1.315.332,0a.045.045,0,0,1,.026.081l-.267.2.1.316a.045.045,0,0,1-.069.05l-.27-.193-.27.193a.045.045,0,0,1-.069-.05l.1-.316-.267-.2a.045.045,0,0,1,.026-.081l.332,0,.1-.315A.045.045,0,0,1,109.99,108Z" transform="translate(-104.316 -107.968)" fill="#f5f5f5"/>
      <path id="Path_726" data-name="Path 726" d="M109.99,138.653l.1.315.332,0a.045.045,0,0,1,.026.081l-.267.2.1.316a.045.045,0,0,1-.069.05l-.27-.193-.27.193a.045.045,0,0,1-.069-.05l.1-.316-.267-.2a.045.045,0,0,1,.026-.081l.332,0,.1-.315A.045.045,0,0,1,109.99,138.653Z" transform="translate(-104.316 -136.977)" fill="#f5f5f5"/>
      <path id="Path_727" data-name="Path 727" d="M109.99,169.307l.1.315.332,0a.045.045,0,0,1,.026.081l-.267.2.1.316a.045.045,0,0,1-.069.05l-.27-.193-.27.193a.045.045,0,0,1-.069-.05l.1-.316-.267-.2a.045.045,0,0,1,.026-.081l.332,0,.1-.315A.045.045,0,0,1,109.99,169.307Z" transform="translate(-104.316 -165.986)" fill="#f5f5f5"/>
      <path id="Path_728" data-name="Path 728" d="M109.99,199.961l.1.315.332,0a.045.045,0,0,1,.026.081l-.267.2.1.316a.045.045,0,0,1-.069.05l-.27-.193-.27.193a.045.045,0,0,1-.069-.05l.1-.316-.267-.2a.045.045,0,0,1,.026-.081l.332,0,.1-.315A.045.045,0,0,1,109.99,199.961Z" transform="translate(-104.316 -194.994)" fill="#f5f5f5"/>
      <path id="Path_729" data-name="Path 729" d="M109.99,230.616l.1.315.332,0a.045.045,0,0,1,.026.081l-.267.2.1.316a.045.045,0,0,1-.069.05l-.27-.193-.27.193a.045.045,0,0,1-.069-.05l.1-.316-.267-.2a.045.045,0,0,1,.026-.081l.332,0,.1-.315A.045.045,0,0,1,109.99,230.616Z" transform="translate(-104.316 -224.004)" fill="#f5f5f5"/>
      <path id="Path_730" data-name="Path 730" d="M133.784,123.028l.1.315.332,0a.045.045,0,0,1,.026.081l-.267.2.1.316a.045.045,0,0,1-.069.05l-.27-.193-.27.193a.045.045,0,0,1-.069-.05l.1-.316-.267-.2a.045.045,0,0,1,.026-.081l.332,0,.1-.315A.045.045,0,0,1,133.784,123.028Z" transform="translate(-126.833 -122.191)" fill="#f5f5f5"/>
      <path id="Path_731" data-name="Path 731" d="M133.784,153.682l.1.315.332,0a.045.045,0,0,1,.026.081l-.267.2.1.316a.045.045,0,0,1-.069.05l-.27-.193-.27.193a.045.045,0,0,1-.069-.05l.1-.316-.267-.2a.045.045,0,0,1,.026-.081l.332,0,.1-.315A.045.045,0,0,1,133.784,153.682Z" transform="translate(-126.833 -151.2)" fill="#f5f5f5"/>
      <path id="Path_732" data-name="Path 732" d="M133.784,184.336l.1.315.332,0a.045.045,0,0,1,.026.081l-.267.2.1.316a.045.045,0,0,1-.069.05l-.27-.193-.27.193a.045.045,0,0,1-.069-.05l.1-.316-.267-.2a.045.045,0,0,1,.026-.081l.332,0,.1-.315A.045.045,0,0,1,133.784,184.336Z" transform="translate(-126.833 -180.208)" fill="#f5f5f5"/>
      <path id="Path_733" data-name="Path 733" d="M133.784,214.991l.1.315.332,0a.045.045,0,0,1,.026.081l-.267.2.1.316a.045.045,0,0,1-.069.05l-.27-.193-.27.193a.045.045,0,0,1-.069-.05l.1-.316-.267-.2a.045.045,0,0,1,.026-.081l.332,0,.1-.315A.045.045,0,0,1,133.784,214.991Z" transform="translate(-126.833 -209.217)" fill="#f5f5f5"/>
      <path id="Path_734" data-name="Path 734" d="M157.578,108l.1.315.332,0a.045.045,0,0,1,.026.081l-.267.2.1.316a.045.045,0,0,1-.069.05l-.27-.193-.27.193a.045.045,0,0,1-.069-.05l.1-.316-.267-.2a.045.045,0,0,1,.026-.081l.332,0,.1-.315A.045.045,0,0,1,157.578,108Z" transform="translate(-149.35 -107.968)" fill="#f5f5f5"/>
      <path id="Path_735" data-name="Path 735" d="M157.578,138.653l.1.315.332,0a.045.045,0,0,1,.026.081l-.267.2.1.316a.045.045,0,0,1-.069.05l-.27-.193-.27.193a.045.045,0,0,1-.069-.05l.1-.316-.267-.2a.045.045,0,0,1,.026-.081l.332,0,.1-.315A.045.045,0,0,1,157.578,138.653Z" transform="translate(-149.35 -136.977)" fill="#f5f5f5"/>
      <path id="Path_736" data-name="Path 736" d="M157.578,169.307l.1.315.332,0a.045.045,0,0,1,.026.081l-.267.2.1.316a.045.045,0,0,1-.069.05l-.27-.193-.27.193a.045.045,0,0,1-.069-.05l.1-.316-.267-.2a.045.045,0,0,1,.026-.081l.332,0,.1-.315A.045.045,0,0,1,157.578,169.307Z" transform="translate(-149.35 -165.986)" fill="#f5f5f5"/>
      <path id="Path_737" data-name="Path 737" d="M157.578,199.961l.1.315.332,0a.045.045,0,0,1,.026.081l-.267.2.1.316a.045.045,0,0,1-.069.05l-.27-.193-.27.193a.045.045,0,0,1-.069-.05l.1-.316-.267-.2a.045.045,0,0,1,.026-.081l.332,0,.1-.315A.045.045,0,0,1,157.578,199.961Z" transform="translate(-149.35 -194.994)" fill="#f5f5f5"/>
      <path id="Path_738" data-name="Path 738" d="M157.578,230.616l.1.315.332,0a.045.045,0,0,1,.026.081l-.267.2.1.316a.045.045,0,0,1-.069.05l-.27-.193-.27.193a.045.045,0,0,1-.069-.05l.1-.316-.267-.2a.045.045,0,0,1,.026-.081l.332,0,.1-.315A.045.045,0,0,1,157.578,230.616Z" transform="translate(-149.35 -224.004)" fill="#f5f5f5"/>
      <path id="Path_739" data-name="Path 739" d="M181.371,123.028l.1.315.332,0a.045.045,0,0,1,.026.081l-.267.2.1.316a.045.045,0,0,1-.069.05l-.27-.193-.27.193a.045.045,0,0,1-.069-.05l.1-.316-.267-.2a.045.045,0,0,1,.026-.081l.332,0,.1-.315A.045.045,0,0,1,181.371,123.028Z" transform="translate(-171.866 -122.191)" fill="#f5f5f5"/>
      <path id="Path_740" data-name="Path 740" d="M181.371,153.682l.1.315.332,0a.045.045,0,0,1,.026.081l-.267.2.1.316a.045.045,0,0,1-.069.05l-.27-.193-.27.193a.045.045,0,0,1-.069-.05l.1-.316-.267-.2a.045.045,0,0,1,.026-.081l.332,0,.1-.315A.045.045,0,0,1,181.371,153.682Z" transform="translate(-171.866 -151.2)" fill="#f5f5f5"/>
      <path id="Path_741" data-name="Path 741" d="M181.371,184.336l.1.315.332,0a.045.045,0,0,1,.026.081l-.267.2.1.316a.045.045,0,0,1-.069.05l-.27-.193-.27.193a.045.045,0,0,1-.069-.05l.1-.316-.267-.2a.045.045,0,0,1,.026-.081l.332,0,.1-.315A.045.045,0,0,1,181.371,184.336Z" transform="translate(-171.866 -180.208)" fill="#f5f5f5"/>
      <path id="Path_742" data-name="Path 742" d="M181.371,214.991l.1.315.332,0a.045.045,0,0,1,.026.081l-.267.2.1.316a.045.045,0,0,1-.069.05l-.27-.193-.27.193a.045.045,0,0,1-.069-.05l.1-.316-.267-.2a.045.045,0,0,1,.026-.081l.332,0,.1-.315A.045.045,0,0,1,181.371,214.991Z" transform="translate(-171.866 -209.217)" fill="#f5f5f5"/>
      <path id="Path_743" data-name="Path 743" d="M205.165,108l.1.315.332,0a.045.045,0,0,1,.026.081l-.267.2.1.316a.045.045,0,0,1-.069.05l-.27-.193-.27.193a.045.045,0,0,1-.069-.05l.1-.316-.267-.2a.045.045,0,0,1,.026-.081l.332,0,.1-.315A.045.045,0,0,1,205.165,108Z" transform="translate(-194.382 -107.968)" fill="#f5f5f5"/>
      <path id="Path_744" data-name="Path 744" d="M205.165,138.653l.1.315.332,0a.045.045,0,0,1,.026.081l-.267.2.1.316a.045.045,0,0,1-.069.05l-.27-.193-.27.193a.045.045,0,0,1-.069-.05l.1-.316-.267-.2a.045.045,0,0,1,.026-.081l.332,0,.1-.315A.045.045,0,0,1,205.165,138.653Z" transform="translate(-194.382 -136.977)" fill="#f5f5f5"/>
      <path id="Path_745" data-name="Path 745" d="M205.165,169.307l.1.315.332,0a.045.045,0,0,1,.026.081l-.267.2.1.316a.045.045,0,0,1-.069.05l-.27-.193-.27.193a.045.045,0,0,1-.069-.05l.1-.316-.267-.2a.045.045,0,0,1,.026-.081l.332,0,.1-.315A.045.045,0,0,1,205.165,169.307Z" transform="translate(-194.382 -165.986)" fill="#f5f5f5"/>
      <path id="Path_746" data-name="Path 746" d="M205.165,199.961l.1.315.332,0a.045.045,0,0,1,.026.081l-.267.2.1.316a.045.045,0,0,1-.069.05l-.27-.193-.27.193a.045.045,0,0,1-.069-.05l.1-.316-.267-.2a.045.045,0,0,1,.026-.081l.332,0,.1-.315A.045.045,0,0,1,205.165,199.961Z" transform="translate(-194.382 -194.994)" fill="#f5f5f5"/>
      <path id="Path_747" data-name="Path 747" d="M205.165,230.616l.1.315.332,0a.045.045,0,0,1,.026.081l-.267.2.1.316a.045.045,0,0,1-.069.05l-.27-.193-.27.193a.045.045,0,0,1-.069-.05l.1-.316-.267-.2a.045.045,0,0,1,.026-.081l.332,0,.1-.315A.045.045,0,0,1,205.165,230.616Z" transform="translate(-194.382 -224.004)" fill="#f5f5f5"/>
    </g>
  </g>
</svg>
