<svg xmlns="http://www.w3.org/2000/svg" width="88.203" height="28.546" viewBox="0 0 88.203 28.546"><g transform="translate(-81.166 -105.048)"><path d="M440.652,138.36h-7.145l4.469-27.633h7.145Z" transform="translate(-321.265 -5.178)" fill="#00579f"/><path d="M586.612,106.224a17.609,17.609,0,0,0-6.409-1.176c-7.056,0-12.025,3.763-12.055,9.142-.059,3.969,3.557,6.173,6.262,7.5,2.764,1.352,3.7,2.235,3.7,3.44-.028,1.851-2.234,2.7-4.291,2.7a14.221,14.221,0,0,1-6.7-1.47l-.941-.442-1,6.2a21.746,21.746,0,0,0,7.969,1.471c7.5,0,12.378-3.7,12.436-9.437.029-3.146-1.881-5.556-6-7.526-2.5-1.264-4.029-2.117-4.029-3.411.029-1.176,1.294-2.381,4.115-2.381a12.139,12.139,0,0,1,5.322,1.058l.646.293.972-5.967Z" transform="translate(-441.323)" fill="#00579f"/><path d="M801.577,128.571c.588-1.587,2.853-7.732,2.853-7.732-.03.059.587-1.617.94-2.646l.5,2.381s1.353,6.614,1.647,8Zm8.82-17.844H804.87a3.526,3.526,0,0,0-3.734,2.293l-10.613,25.34h7.5s1.234-3.411,1.5-4.145h9.174c.205.97.853,4.145.853,4.145h6.616L810.4,110.727Z" transform="translate(-646.791 -5.178)" fill="#00579f"/><path d="M183.476,110.727l-7,18.843-.765-3.822c-1.294-4.41-5.351-9.2-9.879-11.583l6.409,24.165H179.8l11.231-27.6Z" transform="translate(-77.202 -5.178)" fill="#00579f"/><path d="M92.779,110.727h-11.5l-.118.558c8.967,2.293,14.906,7.821,17.346,14.464l-2.5-12.7c-.411-1.765-1.676-2.265-3.234-2.323Z" transform="translate(0 -5.178)" fill="#faa61a"/></g></svg>